<svg width="26" height="27" viewBox="0 0 37 32" fill="none" xmlns="http://www.w3.org/2000/svg">
<path fill-rule="evenodd" clip-rule="evenodd" d="M18.9609 -9.02107e-08C9.02111 -9.02107e-08 0.960938 7.34436 0.960938 16.4051C0.960938 23.653 6.11849 29.8023 13.2704 31.9715C14.17 32.1234 14.5003 31.6157 14.5003 31.1824C14.5003 30.7914 14.4836 29.4989 14.4758 28.1281C9.46822 29.1204 8.41156 26.1925 8.41156 26.1925C7.59275 24.2966 6.41298 23.7921 6.41298 23.7921C4.77984 22.7739 6.53609 22.7948 6.53609 22.7948C8.3436 22.9105 9.29534 24.4856 9.29534 24.4856C10.9008 26.9933 13.5062 26.2683 14.5334 25.8491C14.6952 24.7891 15.1614 24.0651 15.6762 23.6554C11.6781 23.2409 7.47531 21.834 7.47531 15.548C7.47531 13.7572 8.17846 12.2938 9.32992 11.1449C9.14303 10.7314 8.52691 9.06289 9.50459 6.80321C9.50459 6.80321 11.0161 6.36258 14.4556 8.48507C15.8914 8.12158 17.4312 7.9393 18.9609 7.93278C20.4906 7.9393 22.0317 8.12158 23.4702 8.48507C26.9058 6.36258 28.4152 6.80321 28.4152 6.80321C29.395 9.06289 28.7788 10.7314 28.592 11.1449C29.7461 12.2938 30.4442 13.7572 30.4442 15.548C30.4442 21.8492 26.2333 23.2363 22.2251 23.6424C22.8708 24.1515 23.446 25.1498 23.446 26.6804C23.446 28.8754 23.4255 30.642 23.4255 31.1824C23.4255 31.6192 23.7492 32.1307 24.6616 31.9696C31.8099 29.798 36.9609 23.6508 36.9609 16.4051C36.9609 7.34436 28.902 -9.02107e-08 18.9609 -9.02107e-08Z" 
fill="#dbdbdb"/>
<path d="M7.77897 23.5533C7.73932 23.6351 7.59863 23.6596 7.47046 23.6033C7.33961 23.5498 7.26658 23.4387 7.30891 23.3569C7.34765 23.2733 7.48834 23.2499 7.6189 23.3059C7.74946 23.3594 7.82397 23.4716 7.77897 23.5533Z" 
fill="#dbdbdb"/>
<path d="M8.50849 24.2948C8.42265 24.3673 8.25453 24.3336 8.14097 24.219C8.02293 24.1046 8.00117 23.9514 8.08821 23.8781C8.17674 23.8055 8.33948 23.8395 8.45722 23.9539C8.57526 24.0696 8.59821 24.2214 8.50849 24.2948Z" 
fill="#dbdbdb"/>
<path d="M9.21916 25.2394C9.10887 25.3095 8.92824 25.244 8.81676 25.0981C8.70647 24.9519 8.70647 24.777 8.81944 24.7069C8.93092 24.6368 9.10887 24.7001 9.22184 24.8446C9.33183 24.993 9.33183 25.1679 9.21916 25.2394Z" 
fill="#dbdbdb"/>
<path d="M10.188 26.1522C10.0893 26.2514 9.87916 26.2247 9.72536 26.0894C9.56798 25.9571 9.52416 25.7694 9.62282 25.6703C9.72297 25.5708 9.93431 25.5988 10.0893 25.733C10.2455 25.865 10.2929 26.0541 10.188 26.1522Z" 
fill="#dbdbdb"/>
<path d="M11.5303 26.6825C11.4865 26.8109 11.2844 26.8691 11.0805 26.8145C10.8769 26.7582 10.7437 26.608 10.7848 26.4782C10.8271 26.3486 11.0304 26.288 11.2358 26.3464C11.4391 26.4024 11.5726 26.5518 11.5303 26.6825Z" 
fill="#dbdbdb"/>
<path d="M13.0004 26.7812C13.0054 26.9165 12.8325 27.0287 12.6185 27.0311C12.4033 27.0357 12.2289 26.926 12.2266 26.7929C12.2266 26.6562 12.3959 26.5454 12.6108 26.5418C12.8248 26.538 13.0004 26.647 13.0004 26.7812Z" 
fill="#dbdbdb"/>
<path d="M14.3729 26.5683C14.3986 26.7001 14.2498 26.8356 14.0373 26.8718C13.8283 26.9068 13.6349 26.825 13.6084 26.6944C13.5824 26.5591 13.7336 26.4235 13.9425 26.3885C14.1553 26.3548 14.3458 26.4341 14.3729 26.5683Z" 
fill="#dbdbdb"/>
</svg>
