<svg width="1920" height="153" viewBox="0 0 1920 153" fill="none" xmlns="http://www.w3.org/2000/svg">
<path d="M16.5 153L86.215 38.25H-53.215L16.5 153Z" fill="#F2BE58"/>
<path d="M151.5 153L221.215 38.25H81.785L151.5 153Z" fill="#28C053"/>
<path d="M286.5 153L356.215 38.25H216.785L286.5 153Z" fill="#DB7313"/>
<path d="M421.5 153L491.215 38.25H351.785L421.5 153Z" fill="#F258BE"/>
<path d="M556.5 153L626.215 38.25H486.785L556.5 153Z" fill="#F25874"/>
<path d="M691.5 153L761.215 38.25H621.785L691.5 153Z" fill="#1594DB"/>
<path d="M826.5 153L896.215 38.25H756.785L826.5 153Z" fill="#F2BE58"/>
<path d="M961.5 153L1031.22 38.25H891.785L961.5 153Z" fill="#28C053"/>
<path d="M1096.5 153L1166.22 38.25H1026.78L1096.5 153Z" fill="#DB7313"/>
<path d="M1231.5 153L1301.22 38.25H1161.78L1231.5 153Z" fill="#F258BE"/>
<path d="M1366.5 153L1436.22 38.25H1296.78L1366.5 153Z" fill="#F25874"/>
<path d="M1501.5 153L1571.22 38.25H1431.78L1501.5 153Z" fill="#1594DB"/>
<path d="M1636.5 153L1706.22 38.25H1566.78L1636.5 153Z" fill="#F2BE58"/>
<path d="M1771.5 153L1841.22 38.25H1701.78L1771.5 153Z" fill="#28C053"/>
<path d="M1906.5 153L1976.22 38.25H1836.78L1906.5 153Z" fill="#DB7313"/>
</svg>
