<svg width="807" height="806" viewBox="0 0 807 806" fill="none" xmlns="http://www.w3.org/2000/svg">
<path fill-rule="evenodd" clip-rule="evenodd" d="M411.055 805.978C411.097 805.935 411.139 805.891 411.181 805.848C629.78 579.459 623.465 218.725 397.077 0.125781L396.946 -9.46049e-06L1.01172 410.043L411.055 805.978Z" fill="#C4C4C4" fill-opacity="0.3"/>
<path fill-rule="evenodd" clip-rule="evenodd" d="M371.49 767.774C371.528 767.735 371.566 767.695 371.603 767.656C569.11 563.112 563.404 237.185 358.86 39.6791L358.742 39.5654L1.01172 410.043L371.49 767.774Z" fill="#D02A2A"/>
<path fill-rule="evenodd" clip-rule="evenodd" d="M393.791 789.308C393.831 789.266 393.871 789.224 393.912 789.182C603.307 572.325 597.258 226.78 380.401 17.3846L380.276 17.2641L1.01172 410.043L393.791 789.308Z" fill="#A87979" fill-opacity="0.6"/>
<path d="M516.016 427.969C540.273 431.154 552.949 436.127 574.114 451.106" stroke="white" stroke-width="5"/>
<path d="M515.946 395.653C539.433 393.904 551.886 389.81 573.04 376.558" stroke="white" stroke-width="5"/>
<path d="M506.647 497.276C531.607 500.762 545.557 499.298 570.679 490.225" stroke="white" stroke-width="5"/>
<line x1="1.05353" y1="409.492" x2="615.042" y2="475.609" stroke="white"/>
<path d="M166.442 437.029C171.775 426.727 172.607 409.305 168.281 403.941" stroke="white"/>
<line x1="1.01735" y1="409.489" x2="517.101" y2="427.405" stroke="white"/>
<line x1="2.00234" y1="409.489" x2="614.927" y2="412.36" stroke="white"/>
<line x1="0.979833" y1="409.5" x2="546.978" y2="387.46" stroke="white"/>
<line x1="0.986458" y1="409.5" x2="515.989" y2="395.547" stroke="white"/>
<line x1="1.07888" y1="409.506" x2="540.091" y2="495.614" stroke="white"/>
<line x1="1.02582" y1="409.49" x2="549.324" y2="437.845" stroke="white"/>
<path d="M484.812 371.668L488.68 369.781H489.066V383.199C489.066 384.09 489.102 384.645 489.172 384.863C489.25 385.082 489.406 385.25 489.641 385.367C489.875 385.484 490.352 385.551 491.07 385.566V386H485.094V385.566C485.844 385.551 486.328 385.488 486.547 385.379C486.766 385.262 486.918 385.109 487.004 384.922C487.09 384.727 487.133 384.152 487.133 383.199V374.621C487.133 373.465 487.094 372.723 487.016 372.395C486.961 372.145 486.859 371.961 486.711 371.844C486.57 371.727 486.398 371.668 486.195 371.668C485.906 371.668 485.504 371.789 484.988 372.031L484.812 371.668Z" fill="white"/>
<path d="M513.418 434.109L512.504 436.102H507.723L506.68 438.234C508.75 438.539 510.391 439.309 511.602 440.543C512.641 441.605 513.16 442.855 513.16 444.293C513.16 445.129 512.988 445.902 512.645 446.613C512.309 447.324 511.883 447.93 511.367 448.43C510.852 448.93 510.277 449.332 509.645 449.637C508.746 450.066 507.824 450.281 506.879 450.281C505.926 450.281 505.23 450.121 504.793 449.801C504.363 449.473 504.148 449.113 504.148 448.723C504.148 448.504 504.238 448.312 504.418 448.148C504.598 447.977 504.824 447.891 505.098 447.891C505.301 447.891 505.477 447.922 505.625 447.984C505.781 448.047 506.043 448.207 506.41 448.465C506.996 448.871 507.59 449.074 508.191 449.074C509.105 449.074 509.906 448.73 510.594 448.043C511.289 447.348 511.637 446.504 511.637 445.512C511.637 444.551 511.328 443.656 510.711 442.828C510.094 441.992 509.242 441.348 508.156 440.895C507.305 440.543 506.145 440.34 504.676 440.285L507.723 434.109H513.418Z" fill="white"/>
<path d="M632.758 469.781V470.215C631.727 470.316 630.883 470.523 630.227 470.836C629.578 471.141 628.934 471.609 628.293 472.242C627.66 472.875 627.133 473.582 626.711 474.363C626.297 475.137 625.949 476.059 625.668 477.129C626.793 476.355 627.922 475.969 629.055 475.969C630.141 475.969 631.082 476.406 631.879 477.281C632.676 478.156 633.074 479.281 633.074 480.656C633.074 481.984 632.672 483.195 631.867 484.289C630.898 485.617 629.617 486.281 628.023 486.281C626.938 486.281 626.016 485.922 625.258 485.203C623.773 483.805 623.031 481.992 623.031 479.766C623.031 478.344 623.316 476.992 623.887 475.711C624.457 474.43 625.27 473.293 626.324 472.301C627.387 471.309 628.402 470.641 629.371 470.297C630.34 469.953 631.242 469.781 632.078 469.781H632.758ZM625.469 477.984C625.328 479.039 625.258 479.891 625.258 480.539C625.258 481.289 625.395 482.105 625.668 482.988C625.949 483.863 626.363 484.559 626.91 485.074C627.309 485.441 627.793 485.625 628.363 485.625C629.043 485.625 629.648 485.305 630.18 484.664C630.719 484.023 630.988 483.109 630.988 481.922C630.988 480.586 630.723 479.43 630.191 478.453C629.66 477.477 628.906 476.988 627.93 476.988C627.633 476.988 627.312 477.051 626.969 477.176C626.633 477.301 626.133 477.57 625.469 477.984Z" fill="white"/>
<path d="M455.414 488.109H463.934V488.555L458.637 504.328H457.324L462.07 490.02H457.699C456.816 490.02 456.188 490.125 455.812 490.336C455.156 490.695 454.629 491.25 454.23 492L453.891 491.871L455.414 488.109Z" fill="white"/>
<path d="M491.168 425.141V426.805H489.035V431H487.102V426.805H480.375V425.305L487.746 414.781H489.035V425.141H491.168ZM487.102 425.141V417.254L481.523 425.141H487.102Z" fill="white"/>
<path d="M620.219 405.133C620.672 404.062 621.242 403.238 621.93 402.66C622.625 402.074 623.488 401.781 624.52 401.781C625.793 401.781 626.77 402.195 627.449 403.023C627.965 403.641 628.223 404.301 628.223 405.004C628.223 406.16 627.496 407.355 626.043 408.59C627.02 408.973 627.758 409.52 628.258 410.23C628.758 410.941 629.008 411.777 629.008 412.738C629.008 414.113 628.57 415.305 627.695 416.312C626.555 417.625 624.902 418.281 622.738 418.281C621.668 418.281 620.938 418.148 620.547 417.883C620.164 417.617 619.973 417.332 619.973 417.027C619.973 416.801 620.062 416.602 620.242 416.43C620.43 416.258 620.652 416.172 620.91 416.172C621.105 416.172 621.305 416.203 621.508 416.266C621.641 416.305 621.941 416.449 622.41 416.699C622.879 416.941 623.203 417.086 623.383 417.133C623.672 417.219 623.98 417.262 624.309 417.262C625.105 417.262 625.797 416.953 626.383 416.336C626.977 415.719 627.273 414.988 627.273 414.145C627.273 413.527 627.137 412.926 626.863 412.34C626.66 411.902 626.438 411.57 626.195 411.344C625.859 411.031 625.398 410.75 624.812 410.5C624.227 410.242 623.629 410.113 623.02 410.113H622.645V409.762C623.262 409.684 623.879 409.461 624.496 409.094C625.121 408.727 625.574 408.285 625.855 407.77C626.137 407.254 626.277 406.688 626.277 406.07C626.277 405.266 626.023 404.617 625.516 404.125C625.016 403.625 624.391 403.375 623.641 403.375C622.43 403.375 621.418 404.023 620.605 405.32L620.219 405.133Z" fill="white"/>
<path d="M511.004 403.941L509.891 407H500.516V406.566C503.273 404.051 505.215 401.996 506.34 400.402C507.465 398.809 508.027 397.352 508.027 396.031C508.027 395.023 507.719 394.195 507.102 393.547C506.484 392.898 505.746 392.574 504.887 392.574C504.105 392.574 503.402 392.805 502.777 393.266C502.16 393.719 501.703 394.387 501.406 395.27H500.973C501.168 393.824 501.668 392.715 502.473 391.941C503.285 391.168 504.297 390.781 505.508 390.781C506.797 390.781 507.871 391.195 508.73 392.023C509.598 392.852 510.031 393.828 510.031 394.953C510.031 395.758 509.844 396.562 509.469 397.367C508.891 398.633 507.953 399.973 506.656 401.387C504.711 403.512 503.496 404.793 503.012 405.23H507.16C508.004 405.23 508.594 405.199 508.93 405.137C509.273 405.074 509.582 404.949 509.855 404.762C510.129 404.566 510.367 404.293 510.57 403.941H511.004Z" fill="white"/>
</svg>
