<svg width="1576" height="1544" viewBox="0 0 1576 1544" fill="none" xmlns="http://www.w3.org/2000/svg">
<circle r="524" transform="matrix(-0.840873 -0.541233 -0.541233 0.840873 726.41 817.395)" fill="#111111" stroke="white" stroke-width="3"/>
<line x1="1003.26" y1="374.57" x2="1411.26" y2="618.569" stroke="white"/>
<line x1="726.177" y1="816.532" x2="1216.18" y2="1001.53" stroke="white"/>
<path d="M1250 814.204C1402.4 747.235 1423.59 568.094 1423.95 572.372" stroke="white" stroke-width="6"/>
<path d="M1216 1000.88C1347.9 1058.84 1366.24 1213.88 1366.55 1210.18" stroke="white" stroke-width="6"/>
<line y1="-1" x2="516.035" y2="-1" transform="matrix(0.531734 -0.846912 -0.846912 -0.531734 728.425 813.34)" stroke="white" stroke-width="2"/>
<path d="M791.5 815.001C789.006 794.308 772.627 767.593 760.778 764" stroke="white" stroke-width="3"/>
<path d="M794.042 842.093C799.237 833.865 801.181 819.365 797.95 814.572" stroke="white" stroke-width="3"/>
<path d="M727.06 37.9393C726.474 37.3536 725.524 37.3536 724.938 37.9393L715.392 47.4853C714.807 48.0711 714.807 49.0208 715.392 49.6066C715.978 50.1924 716.928 50.1924 717.514 49.6066L725.999 41.1213L734.484 49.6066C735.07 50.1924 736.02 50.1924 736.606 49.6066C737.191 49.0208 737.191 48.0711 736.606 47.4853L727.06 37.9393ZM727.499 815.882V39H724.499V815.882H727.499Z" fill="#FFF7F7"/>
<path d="M1546.11 816.061C1546.69 815.475 1546.69 814.525 1546.11 813.939L1536.56 804.393C1535.98 803.808 1535.03 803.808 1534.44 804.393C1533.86 804.979 1533.86 805.929 1534.44 806.515L1542.93 815L1534.44 823.485C1533.86 824.071 1533.86 825.021 1534.44 825.607C1535.03 826.192 1535.98 826.192 1536.56 825.607L1546.11 816.061ZM724.999 816.5H1545.05V813.5H724.999V816.5Z" fill="white"/>
<path d="M826.336 791.024C827.403 791.024 828.427 790.917 829.408 790.704C830.389 790.491 831.371 790.235 832.352 789.936V797.04C831.328 797.467 830.048 797.829 828.512 798.128C827.019 798.469 825.376 798.64 823.584 798.64C821.493 798.64 819.616 798.299 817.952 797.616C816.331 796.933 815.029 795.76 814.048 794.096C813.109 792.389 812.64 790.043 812.64 787.056V770.224H808.096V766.192L813.344 762.992L816.096 755.632H822.176V763.056H831.968V770.224H822.176V787.056C822.176 788.379 822.56 789.381 823.328 790.064C824.096 790.704 825.099 791.024 826.336 791.024Z" fill="white"/>
<path d="M929.48 555.416C929.949 555.416 930.504 555.437 931.144 555.48C931.784 555.523 932.296 555.587 932.68 555.672L931.976 564.632C931.677 564.547 931.229 564.483 930.632 564.44C930.077 564.355 929.586 564.312 929.16 564.312C927.538 564.312 925.981 564.611 924.488 565.208C922.994 565.763 921.778 566.68 920.84 567.96C919.944 569.24 919.496 570.989 919.496 573.208V591H909.96V556.056H917.192L918.6 561.944H919.048C920.072 560.152 921.48 558.616 923.272 557.336C925.064 556.056 927.133 555.416 929.48 555.416Z" fill="white"/>
<path d="M1303.63 907L1300.31 896.12H1283.67L1280.34 907H1269.91L1286.03 861.112H1297.87L1314.07 907H1303.63ZM1298 887.992L1294.67 877.368C1294.46 876.643 1294.18 875.725 1293.84 874.616C1293.5 873.507 1293.16 872.376 1292.82 871.224C1292.48 870.072 1292.2 869.069 1291.99 868.216C1291.77 869.069 1291.47 870.136 1291.09 871.416C1290.75 872.653 1290.41 873.848 1290.07 875C1289.77 876.109 1289.53 876.899 1289.36 877.368L1286.1 887.992H1298Z" fill="white"/>
<path d="M1236.78 1053.73C1233.06 1053.73 1230.23 1055.11 1228.26 1057.89C1226.3 1060.66 1225.32 1064.46 1225.32 1069.28C1225.32 1074.14 1226.22 1077.92 1228.01 1080.61C1229.84 1083.25 1232.77 1084.58 1236.78 1084.58C1238.65 1084.58 1240.51 1084.36 1242.34 1083.94C1244.22 1083.51 1246.25 1082.91 1248.42 1082.14V1090.27C1246.42 1091.08 1244.43 1091.68 1242.47 1092.06C1240.51 1092.45 1238.31 1092.64 1235.88 1092.64C1231.19 1092.64 1227.3 1091.68 1224.23 1089.76C1221.2 1087.8 1218.96 1085.07 1217.51 1081.57C1216.06 1078.03 1215.34 1073.91 1215.34 1069.22C1215.34 1064.61 1216.17 1060.53 1217.83 1056.99C1219.5 1053.45 1221.91 1050.68 1225.06 1048.67C1228.26 1046.67 1232.17 1045.66 1236.78 1045.66C1239.04 1045.66 1241.3 1045.96 1243.56 1046.56C1245.86 1047.11 1248.06 1047.88 1250.15 1048.86L1247.02 1056.74C1245.31 1055.93 1243.58 1055.22 1241.83 1054.62C1240.13 1054.03 1238.44 1053.73 1236.78 1053.73Z" fill="white"/>
<path d="M895.048 853.496C895.222 853.597 895.397 853.694 895.572 853.787L894.048 853.075V856.217V866H892.999V833.057C892.999 830.396 893.778 828.515 895.157 827.147L895.157 827.147L895.166 827.139C896.514 825.786 898.472 825 901.161 825C903.81 825 905.614 825.635 906.882 826.665C908.054 827.673 908.7 829.078 908.7 831.118C908.7 832.407 908.298 833.636 907.416 834.83C906.914 835.51 906.338 836.06 905.678 836.49C906.948 835.091 907.673 833.437 907.673 831.523C907.673 829.725 907.203 828.016 905.932 826.774C904.67 825.54 902.948 825.091 901.14 825.091C899.061 825.091 897.174 825.763 895.83 827.357C894.543 828.882 894.048 830.854 894.048 833.036V851.764V852.919L895.048 853.496ZM901.249 839.184C901.746 839.043 902.225 838.868 902.685 838.658V839.151V839.236V840.21C902.223 840.088 901.744 839.984 901.249 839.897V839.184ZM906.669 842.077C906.425 841.885 906.167 841.707 905.898 841.54C907.476 841.981 908.61 842.663 909.394 843.524L909.403 843.534L909.413 843.544C910.433 844.632 910.999 846.056 910.999 848.014C910.999 850.299 910.223 852.046 908.718 853.41C907.185 854.779 905.119 855.538 902.278 855.538C900.387 855.538 898.688 855.19 897.176 854.532C898.692 855.133 900.226 855.447 901.763 855.447C903.908 855.447 905.86 854.886 907.339 853.544L907.348 853.536L907.356 853.528C908.871 852.122 909.499 850.212 909.499 848.121C909.499 845.662 908.576 843.569 906.669 842.077Z" fill="white" stroke="white" stroke-width="4"/>
<path d="M1561.42 860.4L1562.78 860.32C1562.94 860.32 1563.08 860.24 1563.18 860.08V859.6L1559.66 854.56L1555.98 859.6C1555.93 859.707 1555.9 859.867 1555.9 860.08C1555.9 860.24 1555.98 860.32 1556.14 860.32L1558.14 860.4V862H1550.62V860.4L1552.94 860.08L1558.54 852.96L1553.26 845.04L1550.94 844.56V843.04H1559.5V844.56L1558.14 845.04C1557.56 845.04 1557.42 845.253 1557.74 845.68L1560.94 850L1564.22 845.68C1564.38 845.467 1564.38 845.28 1564.22 845.12C1564.22 845.067 1564.2 845.04 1564.14 845.04L1562.3 844.56V843.04H1569.26V844.56L1567.18 845.04L1561.98 851.76L1567.74 860.08L1569.82 860.4V862H1561.42V860.4Z" fill="white"/>
<path d="M752.851 65.04L751.651 64.88C751.437 64.8267 751.251 64.7467 751.091 64.64C750.931 64.5333 750.797 64.4533 750.691 64.4C750.637 64.2933 750.557 64.16 750.451 64C750.184 63.7867 750.051 63.4667 750.051 63.04C750.051 62.1333 750.211 61.52 750.531 61.2C750.851 60.88 751.091 60.5867 751.251 60.32L754.851 62.16C755.277 61.6267 755.651 61.2 755.971 60.88C756.077 60.6133 756.211 60.3467 756.371 60.08C756.531 59.8667 756.691 59.6 756.851 59.28C757.011 58.96 757.144 58.64 757.251 58.32C757.357 58.0533 757.464 57.76 757.571 57.44C757.731 57.1733 757.837 56.9067 757.891 56.64C757.997 56.4267 758.104 56.2133 758.211 56L751.651 39.04L749.331 38.56V37.04H758.051V38.56L756.131 38.72C756.024 38.72 755.917 38.7733 755.811 38.88C755.757 38.9867 755.651 39.0933 755.491 39.2C755.384 39.3067 755.411 39.4667 755.571 39.68L760.131 51.12L764.851 39.68V39.12C764.744 39.0667 764.637 38.9867 764.531 38.88C764.424 38.7733 764.317 38.72 764.211 38.72L762.371 38.56V37.04H769.331V38.56L767.331 39.04L759.731 57.2C759.731 57.8933 758.984 59.5467 757.491 62.16C757.384 62.4267 757.197 62.6667 756.931 62.88C756.717 63.0933 756.504 63.3067 756.291 63.52C756.131 63.7867 755.891 64 755.571 64.16C755.251 64.32 754.957 64.5333 754.691 64.8C754.051 64.96 753.437 65.04 752.851 65.04Z" fill="white"/>
</svg>
