<svg width="1482" height="1450" viewBox="0 0 1482 1450" fill="none" xmlns="http://www.w3.org/2000/svg">
<circle cx="725" cy="725" r="725" fill="#C4C4C4" fill-opacity="0.3"/>
<path d="M1363.07 722.585C1363.07 372.855 1072.32 86.9277 722.585 86.9277C372.855 86.9277 88.1348 375.27 88.1348 725C88.1348 1074.73 373.458 1361.87 723.189 1361.87C1072.92 1361.87 1363.07 1072.32 1363.07 722.585Z" fill="#D02A2A"/>
<circle r="677.914" transform="matrix(1 0 0 -1 726.207 725)" fill="#A87979" fill-opacity="0.6"/>
<path d="M1464.76 589.64C1459.56 589.64 1455.53 588.211 1452.67 585.352C1449.85 582.451 1448.44 577.907 1448.44 571.72C1448.44 567.453 1449.17 563.976 1450.62 561.288C1452.07 558.6 1454.07 556.616 1456.63 555.336C1459.24 554.056 1462.22 553.416 1465.59 553.416C1467.98 553.416 1470.05 553.651 1471.8 554.12C1473.59 554.589 1475.15 555.144 1476.47 555.784L1473.66 563.144C1472.17 562.547 1470.76 562.056 1469.43 561.672C1468.15 561.288 1466.87 561.096 1465.59 561.096C1460.65 561.096 1458.17 564.616 1458.17 571.656C1458.17 575.155 1458.81 577.736 1460.09 579.4C1461.41 581.064 1463.25 581.896 1465.59 581.896C1467.6 581.896 1469.37 581.64 1470.91 581.128C1472.44 580.573 1473.94 579.827 1475.39 578.888V587.016C1473.94 587.955 1472.4 588.616 1470.78 589C1469.2 589.427 1467.19 589.64 1464.76 589.64Z" fill="white"/>
<path d="M1378.28 680.36V691.688C1378.28 693.011 1378.24 694.312 1378.15 695.592C1378.06 696.872 1377.98 697.875 1377.89 698.6H1378.28C1379.22 697.149 1380.48 695.933 1382.05 694.952C1383.63 693.928 1385.68 693.416 1388.2 693.416C1392.12 693.416 1395.3 694.952 1397.73 698.024C1400.17 701.053 1401.38 705.533 1401.38 711.464C1401.38 717.437 1400.14 721.96 1397.67 725.032C1395.2 728.104 1391.95 729.64 1387.94 729.64C1385.38 729.64 1383.36 729.192 1381.86 728.296C1380.41 727.357 1379.22 726.312 1378.28 725.16H1377.64L1376.04 729H1368.74V680.36H1378.28ZM1385.13 701.032C1382.65 701.032 1380.9 701.8 1379.88 703.336C1378.9 704.872 1378.36 707.219 1378.28 710.376V711.4C1378.28 714.771 1378.77 717.373 1379.75 719.208C1380.77 721 1382.61 721.896 1385.25 721.896C1387.22 721.896 1388.77 721 1389.93 719.208C1391.08 717.373 1391.65 714.749 1391.65 711.336C1391.65 707.923 1391.06 705.363 1389.86 703.656C1388.71 701.907 1387.13 701.032 1385.13 701.032Z" fill="white"/>
<path d="M1276.02 613.352C1280.71 613.352 1284.29 614.376 1286.77 616.424C1289.28 618.429 1290.54 621.523 1290.54 625.704V649H1283.89L1282.03 644.264H1281.78C1280.28 646.141 1278.7 647.507 1277.04 648.36C1275.38 649.213 1273.09 649.64 1270.19 649.64C1267.08 649.64 1264.5 648.744 1262.45 646.952C1260.4 645.117 1259.38 642.323 1259.38 638.568C1259.38 634.856 1260.68 632.125 1263.28 630.376C1265.88 628.584 1269.79 627.603 1274.99 627.432L1281.07 627.24V625.704C1281.07 623.869 1280.58 622.525 1279.6 621.672C1278.66 620.819 1277.34 620.392 1275.63 620.392C1273.92 620.392 1272.26 620.648 1270.64 621.16C1269.02 621.629 1267.4 622.227 1265.78 622.952L1262.64 616.488C1264.52 615.507 1266.59 614.739 1268.85 614.184C1271.15 613.629 1273.54 613.352 1276.02 613.352ZM1281.07 632.808L1277.36 632.936C1274.29 633.021 1272.15 633.576 1270.96 634.6C1269.76 635.624 1269.17 636.968 1269.17 638.632C1269.17 640.083 1269.59 641.128 1270.45 641.768C1271.3 642.365 1272.41 642.664 1273.78 642.664C1275.82 642.664 1277.55 642.067 1278.96 640.872C1280.37 639.635 1281.07 637.907 1281.07 635.688V632.808Z" fill="white"/>
</svg>
