<svg width="1456" height="1541" viewBox="0 0 1456 1541" fill="none" xmlns="http://www.w3.org/2000/svg">
<path d="M481.604 1452.6H509.38V1460.41H489.788V1470.33H509.008V1478.14H489.788V1496H481.604V1452.6ZM519.505 1488.56H529.921V1472.69H520.249V1465.25H537.733V1488.56H546.661V1496H519.505V1488.56ZM539.655 1456.13C539.655 1456.96 539.49 1457.75 539.159 1458.49C538.87 1459.19 538.457 1459.81 537.919 1460.35C537.382 1460.85 536.741 1461.26 535.997 1461.59C535.295 1461.88 534.551 1462.02 533.765 1462.02C532.939 1462.02 532.174 1461.88 531.471 1461.59C530.769 1461.26 530.149 1460.85 529.611 1460.35C529.074 1459.81 528.64 1459.19 528.309 1458.49C528.02 1457.75 527.875 1456.96 527.875 1456.13C527.875 1455.31 528.02 1454.54 528.309 1453.84C528.64 1453.1 529.074 1452.48 529.611 1451.98C530.149 1451.44 530.769 1451.03 531.471 1450.74C532.174 1450.41 532.939 1450.24 533.765 1450.24C534.551 1450.24 535.295 1450.41 535.997 1450.74C536.741 1451.03 537.382 1451.44 537.919 1451.98C538.457 1452.48 538.87 1453.1 539.159 1453.84C539.49 1454.54 539.655 1455.31 539.655 1456.13ZM578.858 1491.54H577.742C577.412 1492.24 576.998 1492.92 576.502 1493.58C576.048 1494.2 575.428 1494.76 574.642 1495.26C573.898 1495.75 572.989 1496.14 571.914 1496.43C570.881 1496.72 569.62 1496.87 568.132 1496.87C566.231 1496.87 564.454 1496.54 562.8 1495.88C561.188 1495.17 559.762 1494.16 558.522 1492.84C557.324 1491.47 556.373 1489.82 555.67 1487.88C555.009 1485.94 554.678 1483.7 554.678 1481.18V1480.07C554.678 1477.59 555.03 1475.37 555.732 1473.43C556.476 1471.49 557.468 1469.86 558.708 1468.53C559.99 1467.17 561.457 1466.14 563.11 1465.43C564.805 1464.73 566.582 1464.38 568.442 1464.38C570.922 1464.38 572.886 1464.86 574.332 1465.81C575.779 1466.72 576.916 1468.02 577.742 1469.71H578.858V1465.25H586.67V1503.56C586.67 1504.97 586.216 1506.13 585.306 1507.04C584.438 1507.95 583.302 1508.4 581.896 1508.4H561.188V1500.96H577.184C578.3 1500.96 578.858 1500.34 578.858 1499.1V1491.54ZM570.674 1489.43C573.113 1489.43 575.076 1488.66 576.564 1487.13C578.094 1485.56 578.858 1483.52 578.858 1481V1480.25C578.858 1477.73 578.094 1475.71 576.564 1474.18C575.076 1472.61 573.113 1471.82 570.674 1471.82C568.236 1471.82 566.252 1472.58 564.722 1474.11C563.234 1475.6 562.49 1477.65 562.49 1480.25V1481C562.49 1483.6 563.234 1485.67 564.722 1487.2C566.252 1488.68 568.236 1489.43 570.674 1489.43ZM615.705 1465.25H623.517V1496H615.705V1491.54H614.589C613.225 1495.09 610.29 1496.87 605.785 1496.87C604.256 1496.87 602.83 1496.62 601.507 1496.12C600.184 1495.63 599.027 1494.86 598.035 1493.83C597.043 1492.8 596.258 1491.52 595.679 1489.99C595.142 1488.42 594.873 1486.58 594.873 1484.47V1465.25H602.685V1482.86C602.685 1485.05 603.202 1486.76 604.235 1488C605.268 1489.2 606.818 1489.8 608.885 1489.8C611.241 1489.8 612.956 1489.06 614.031 1487.57C615.147 1486.04 615.705 1483.97 615.705 1481.37V1465.25ZM631.348 1465.25H644.368V1469.71H645.484C646.063 1468.02 647.034 1466.72 648.398 1465.81C649.803 1464.86 651.477 1464.38 653.42 1464.38C656.479 1464.38 658.938 1465.35 660.798 1467.29C662.658 1469.2 663.588 1472.11 663.588 1476.04V1477.4L655.528 1478.14V1477.28C655.528 1475.58 655.094 1474.24 654.226 1473.25C653.358 1472.21 652.056 1471.7 650.32 1471.7C648.584 1471.7 647.22 1472.3 646.228 1473.49C645.236 1474.69 644.74 1476.41 644.74 1478.64V1488.56H651.808V1496H630.604V1488.56H636.928V1472.69H631.348V1465.25ZM677.681 1483.17C677.722 1484.08 677.929 1484.92 678.301 1485.71C678.714 1486.45 679.252 1487.11 679.913 1487.69C680.616 1488.23 681.401 1488.66 682.269 1488.99C683.178 1489.28 684.129 1489.43 685.121 1489.43C687.064 1489.43 688.552 1489.1 689.585 1488.44C690.618 1487.73 691.362 1486.91 691.817 1485.96L698.513 1489.68C698.141 1490.46 697.624 1491.29 696.963 1492.16C696.302 1492.98 695.434 1493.75 694.359 1494.45C693.326 1495.15 692.044 1495.73 690.515 1496.19C689.027 1496.64 687.27 1496.87 685.245 1496.87C682.93 1496.87 680.822 1496.5 678.921 1495.75C677.02 1495.01 675.366 1493.93 673.961 1492.53C672.597 1491.12 671.522 1489.41 670.737 1487.38C669.993 1485.36 669.621 1483.06 669.621 1480.5V1480.13C669.621 1477.77 670.014 1475.62 670.799 1473.68C671.626 1471.74 672.742 1470.08 674.147 1468.72C675.552 1467.36 677.185 1466.3 679.045 1465.56C680.946 1464.77 682.972 1464.38 685.121 1464.38C687.766 1464.38 690.04 1464.86 691.941 1465.81C693.842 1466.72 695.413 1467.89 696.653 1469.34C697.893 1470.75 698.802 1472.32 699.381 1474.05C699.96 1475.75 700.249 1477.4 700.249 1479.01V1483.17H677.681ZM685.059 1471.45C683.075 1471.45 681.463 1471.96 680.223 1473C678.983 1473.99 678.177 1475.15 677.805 1476.47H692.313C692.065 1475.02 691.28 1473.82 689.957 1472.87C688.676 1471.92 687.043 1471.45 685.059 1471.45ZM713.226 1475.42H732.57V1482.48H713.226V1475.42ZM776.423 1488.19V1496H745.919V1487.44C745.919 1485.17 746.249 1483.23 746.911 1481.62C747.613 1480 748.585 1478.64 749.825 1477.52C751.106 1476.41 752.635 1475.5 754.413 1474.8C756.19 1474.05 758.195 1473.43 760.427 1472.94C762.08 1472.56 763.423 1472.15 764.457 1471.7C765.531 1471.2 766.379 1470.66 766.999 1470.08C767.619 1469.46 768.032 1468.8 768.239 1468.1C768.487 1467.36 768.611 1466.53 768.611 1465.62C768.611 1463.88 767.97 1462.44 766.689 1461.28C765.449 1460.12 763.713 1459.54 761.481 1459.54C759.125 1459.54 757.244 1460.27 755.839 1461.71C754.433 1463.12 753.731 1465.08 753.731 1467.6V1470.33H745.547V1466.86C745.547 1464.83 745.898 1462.91 746.601 1461.09C747.345 1459.23 748.378 1457.62 749.701 1456.26C751.065 1454.85 752.718 1453.76 754.661 1452.97C756.603 1452.15 758.794 1451.73 761.233 1451.73C763.837 1451.73 766.11 1452.12 768.053 1452.91C769.995 1453.65 771.607 1454.65 772.889 1455.89C774.211 1457.13 775.183 1458.57 775.803 1460.23C776.464 1461.84 776.795 1463.51 776.795 1465.25V1465.99C776.795 1469.63 775.761 1472.65 773.695 1475.04C771.669 1477.44 768.342 1479.18 763.713 1480.25C761.77 1480.71 760.158 1481.18 758.877 1481.68C757.637 1482.13 756.665 1482.65 755.963 1483.23C755.26 1483.81 754.764 1484.45 754.475 1485.15C754.227 1485.81 754.103 1486.58 754.103 1487.44V1488.19H776.423Z" fill="white"/>
<circle cx="930.5" cy="840.5" r="523" fill="#222222" stroke="white" stroke-width="5"/>
<line x1="969.9" y1="318.498" x2="67.9003" y2="282.498" stroke="white" stroke-width="5"/>
<path d="M494.501 551C360.116 335.926 475.837 84.7323 472.001 89.9997" stroke="white" stroke-width="6"/>
<path d="M150.5 442.5C291.5 199.5 408 102 636.5 13.5" stroke="white" stroke-width="2"/>
<line x1="635.938" y1="12.6542" x2="757.938" y2="343.654" stroke="white" stroke-width="2"/>
<line x1="151.46" y1="441.112" x2="462.46" y2="602.112" stroke="white" stroke-width="2"/>
<path d="M26.314 304.64C22.4313 304.64 19.2527 303.125 16.778 300.096C14.346 297.024 13.13 292.523 13.13 286.592C13.13 280.619 14.3673 276.096 16.842 273.024C19.3167 269.952 22.5593 268.416 26.57 268.416C29.0873 268.416 31.1567 268.907 32.778 269.888C34.3993 270.869 35.6793 272.085 36.618 273.536H36.938C36.81 272.853 36.6607 271.872 36.49 270.592C36.3193 269.269 36.234 267.925 36.234 266.56V255.36H45.77V304H38.474L36.618 299.456H36.234C35.2953 300.907 34.0367 302.144 32.458 303.168C30.8793 304.149 28.8313 304.64 26.314 304.64ZM29.642 297.024C32.2873 297.024 34.1433 296.256 35.21 294.72C36.2767 293.141 36.8313 290.795 36.874 287.68V286.656C36.874 283.243 36.3407 280.64 35.274 278.848C34.25 277.056 32.33 276.16 29.514 276.16C27.4233 276.16 25.7807 277.077 24.586 278.912C23.3913 280.704 22.794 283.307 22.794 286.72C22.794 290.133 23.3913 292.715 24.586 294.464C25.7807 296.171 27.466 297.024 29.642 297.024Z" fill="white"/>
<path d="M973.337 296.024C974.404 296.024 975.428 295.917 976.409 295.704C977.39 295.491 978.372 295.235 979.353 294.936V302.04C978.329 302.467 977.049 302.829 975.513 303.128C974.02 303.469 972.377 303.64 970.585 303.64C968.494 303.64 966.617 303.299 964.953 302.616C963.332 301.933 962.03 300.76 961.049 299.096C960.11 297.389 959.641 295.043 959.641 292.056V275.224H955.097V271.192L960.345 267.992L963.097 260.632H969.177V268.056H978.969V275.224H969.177V292.056C969.177 293.379 969.561 294.381 970.329 295.064C971.097 295.704 972.1 296.024 973.337 296.024Z" fill="white"/>
<path d="M472.263 73.64C467.057 73.64 463.025 72.2107 460.167 69.352C457.351 66.4507 455.943 61.9067 455.943 55.72C455.943 51.4533 456.668 47.976 458.119 45.288C459.569 42.6 461.575 40.616 464.135 39.336C466.737 38.056 469.724 37.416 473.095 37.416C475.484 37.416 477.553 37.6507 479.303 38.12C481.095 38.5893 482.652 39.144 483.975 39.784L481.159 47.144C479.665 46.5467 478.257 46.056 476.935 45.672C475.655 45.288 474.375 45.096 473.095 45.096C468.145 45.096 465.671 48.616 465.671 55.656C465.671 59.1547 466.311 61.736 467.591 63.4C468.913 65.064 470.748 65.896 473.095 65.896C475.1 65.896 476.871 65.64 478.407 65.128C479.943 64.5733 481.436 63.8267 482.887 62.888V71.016C481.436 71.9547 479.9 72.616 478.279 73C476.7 73.4267 474.695 73.64 472.263 73.64Z" fill="white"/>
<path d="M501.516 581.352C506.209 581.352 509.793 582.376 512.268 584.424C514.785 586.429 516.044 589.523 516.044 593.704V617H509.388L507.532 612.264H507.276C505.782 614.141 504.204 615.507 502.54 616.36C500.876 617.213 498.593 617.64 495.692 617.64C492.577 617.64 489.996 616.744 487.948 614.952C485.9 613.117 484.876 610.323 484.876 606.568C484.876 602.856 486.177 600.125 488.78 598.376C491.382 596.584 495.286 595.603 500.492 595.432L506.572 595.24V593.704C506.572 591.869 506.081 590.525 505.1 589.672C504.161 588.819 502.838 588.392 501.132 588.392C499.425 588.392 497.761 588.648 496.14 589.16C494.518 589.629 492.897 590.227 491.276 590.952L488.14 584.488C490.017 583.507 492.086 582.739 494.348 582.184C496.652 581.629 499.041 581.352 501.516 581.352ZM506.572 600.808L502.86 600.936C499.788 601.021 497.654 601.576 496.46 602.6C495.265 603.624 494.668 604.968 494.668 606.632C494.668 608.083 495.094 609.128 495.948 609.768C496.801 610.365 497.91 610.664 499.276 610.664C501.324 610.664 503.052 610.067 504.46 608.872C505.868 607.635 506.572 605.907 506.572 603.688V600.808Z" fill="white"/>
<path d="M458.778 237.36V248.688C458.778 250.011 458.735 251.312 458.65 252.592C458.565 253.872 458.479 254.875 458.394 255.6H458.778C459.717 254.149 460.975 252.933 462.554 251.952C464.133 250.928 466.181 250.416 468.698 250.416C472.623 250.416 475.802 251.952 478.234 255.024C480.666 258.053 481.882 262.533 481.882 268.464C481.882 274.437 480.645 278.96 478.17 282.032C475.695 285.104 472.453 286.64 468.442 286.64C465.882 286.64 463.855 286.192 462.362 285.296C460.911 284.357 459.717 283.312 458.778 282.16H458.138L456.538 286H449.242V237.36H458.778ZM465.626 258.032C463.151 258.032 461.402 258.8 460.378 260.336C459.397 261.872 458.863 264.219 458.778 267.376V268.4C458.778 271.771 459.269 274.373 460.25 276.208C461.274 278 463.109 278.896 465.754 278.896C467.717 278.896 469.274 278 470.426 276.208C471.578 274.373 472.154 271.749 472.154 268.336C472.154 264.923 471.557 262.363 470.362 260.656C469.21 258.907 467.631 258.032 465.626 258.032Z" fill="white"/>
<path d="M1312.99 395.416C1317.81 395.416 1321.63 396.803 1324.44 399.576C1327.26 402.307 1328.67 406.211 1328.67 411.288V415.896H1306.14C1306.22 418.584 1307.01 420.696 1308.51 422.232C1310.04 423.768 1312.15 424.536 1314.84 424.536C1317.1 424.536 1319.15 424.323 1320.99 423.896C1322.82 423.427 1324.72 422.723 1326.68 421.784V429.144C1324.98 429.997 1323.16 430.616 1321.24 431C1319.36 431.427 1317.08 431.64 1314.39 431.64C1310.9 431.64 1307.8 431 1305.11 429.72C1302.43 428.397 1300.31 426.413 1298.78 423.768C1297.24 421.123 1296.47 417.795 1296.47 413.784C1296.47 409.688 1297.16 406.296 1298.52 403.608C1299.93 400.877 1301.87 398.829 1304.35 397.464C1306.82 396.099 1309.7 395.416 1312.99 395.416ZM1313.05 402.2C1311.22 402.2 1309.68 402.797 1308.44 403.992C1307.25 405.187 1306.54 407.043 1306.33 409.56H1319.71C1319.66 407.427 1319.11 405.677 1318.04 404.312C1316.98 402.904 1315.31 402.2 1313.05 402.2Z" fill="white"/>
<path d="M537.445 1263.22H529.189V1291H519.653V1263.22H514.405V1258.62L519.653 1256.06V1253.5C519.653 1250.51 520.144 1248.21 521.125 1246.58C522.149 1244.92 523.578 1243.75 525.413 1243.06C527.29 1242.38 529.488 1242.04 532.005 1242.04C533.882 1242.04 535.568 1242.19 537.061 1242.49C538.597 1242.79 539.834 1243.13 540.773 1243.51L538.341 1250.49C537.616 1250.27 536.826 1250.08 535.973 1249.91C535.12 1249.7 534.138 1249.59 533.029 1249.59C531.706 1249.59 530.725 1250 530.085 1250.81C529.488 1251.62 529.189 1252.64 529.189 1253.88V1256.06H537.445V1263.22Z" fill="white"/>
<line x1="425.733" y1="294.32" x2="931.733" y2="839.32" stroke="white" stroke-width="2"/>
<line x1="930" y1="835.989" x2="935.809" y2="319.987" stroke="white" stroke-width="2"/>
<line x1="927.45" y1="836.835" x2="494.45" y2="551.835" stroke="white" stroke-width="2"/>
<path d="M886 790C899.297 773.95 918.592 773.608 930.5 777M873 800.5C873.5 795 881.501 787.5 884.5 788.5" stroke="white" stroke-width="3"/>
<path d="M910.953 763.242C909.784 763.572 908.742 763.75 907.827 763.75C904.777 763.75 902.718 761.514 901.676 757.015H901.549C899.033 761.869 895.5 764.284 891.052 764.284C887.722 764.284 885.053 763.039 883.046 760.522C881.038 758.006 880.046 754.854 880.046 751.042C880.046 746.594 881.19 743.036 883.452 740.265C885.714 737.495 888.79 736.097 892.678 736.097C894.763 736.097 896.643 736.682 898.27 737.825C899.897 738.994 901.142 740.621 902.006 742.731H902.108L903.913 736.631H910.419L904.98 750.152C905.59 753.304 906.226 755.464 906.937 756.608C907.547 757.752 908.411 758.337 909.479 758.337C910.089 758.337 910.572 758.235 911.004 758.057L910.953 763.242ZM900.126 749.924C899.592 747.052 898.728 744.815 897.558 743.29C896.415 741.739 895.017 740.977 893.416 740.977C891.331 740.977 889.654 741.917 888.408 743.773C887.163 745.654 886.604 747.967 886.604 750.686C886.604 753.177 887.087 755.236 888.18 756.913C889.247 758.591 890.696 759.404 892.501 759.404C894.026 759.404 895.423 758.667 896.669 757.269C897.94 755.82 898.982 753.711 899.821 750.94L900.126 749.924Z" fill="white"/>
<path d="M810.988 719.415C808.158 719.592 807.848 719.857 807.848 721.494C813.288 721.67 820.938 724.191 820.938 732.195C820.938 740.332 813.111 743.206 807.848 743.295C807.848 745.285 808.202 745.506 810.988 745.683V747.098H800.95V745.683C803.736 745.506 804.09 745.285 804.09 743.295C798.96 743.206 791 740.553 791 732.505C791 724.545 798.695 721.715 804.09 721.494C804.09 719.857 803.736 719.592 801.215 719.415V718H810.988V719.415ZM804.09 723.13C800.331 723.307 795.201 725.473 795.201 732.151C795.201 739.005 800.242 741.393 804.09 741.659V723.13ZM807.848 741.659C811.607 741.393 816.781 739.226 816.781 732.372C816.781 725.473 811.607 723.307 807.848 723.13V741.659Z" fill="white"/>
</svg>
