<svg width="1202" height="1196" viewBox="0 0 1202 1196" fill="none" xmlns="http://www.w3.org/2000/svg">
<circle cx="597.76" cy="597.76" r="597.76" fill="#C4C4C4" fill-opacity="0.3"/>
<path d="M1123.85 595.77C1123.85 307.418 884.121 71.6717 595.77 71.6717C307.418 71.6717 72.667 309.409 72.667 597.761C72.667 886.112 307.915 1122.85 596.267 1122.85C884.619 1122.85 1123.85 884.121 1123.85 595.77Z" fill="#D02A2A"/>
<circle r="558.938" transform="matrix(1 0 0 -1 598.756 597.76)" fill="#A87979" fill-opacity="0.6"/>
<path d="M1123.85 598.258C1155.41 601.502 1172.02 607.486 1200 626.13" stroke="white" stroke-width="5"/>
<path d="M1122.85 565.409C1154.41 562.165 1171.02 556.181 1199 537.536" stroke="white" stroke-width="5"/>
<path d="M1113.95 697.975C1144.4 706.877 1159.65 715.769 1183.8 739.17" stroke="white" stroke-width="5"/>
<path d="M1118.91 665.488C1150.54 668.01 1167.96 665.131 1198.85 651.859" stroke="white" stroke-width="5"/>
<path d="M1082 796.868C1109.88 812.008 1122.91 823.925 1141.56 851.903" stroke="white" stroke-width="5"/>
<path d="M1093.73 766.166C1124.1 775.319 1141.74 776.189 1174.74 769.751" stroke="white" stroke-width="5"/>
<path d="M1034.48 885.416C1059.16 905.352 1069.81 919.43 1083.09 950.321" stroke="white" stroke-width="5"/>
<path d="M1051.57 857.343C1079.79 871.843 1096.97 875.89 1130.59 875.532" stroke="white" stroke-width="5"/>
</svg>
