<svg width="242" height="260" viewBox="0 0 242 260" fill="none" xmlns="http://www.w3.org/2000/svg">
<path d="M117.71 160.415C109.265 151.869 105.708 140.757 126.179 155.922C146.649 171.087 126.155 168.962 117.71 160.415Z" fill="#4E4E4E" stroke="#4E4E4E" stroke-width="5"/>
<path d="M3 259C26.2582 166.371 37.7868 115.369 75 123M77.8492 179.725C77.8492 143.903 132.612 169.762 134.938 196.258C147.835 153.653 162.847 150.685 183.78 178.665C183.78 174.434 179.974 144.962 174.688 134.788C210.632 137.12 215.707 166.371 238.965 259M83.3466 50.6382C101.742 140.511 155.87 226.993 165.596 95.1508" stroke="#4E4E4E" stroke-width="5"/>
<path d="M73.0747 120.793L78.166 179.818" stroke="#4E4E4E" stroke-width="5"/>
<circle cx="135.229" cy="209.136" r="3.11652" fill="#4E4E4E"/>
<ellipse cx="135.229" cy="217.817" rx="3.11652" ry="2.89391" fill="#4E4E4E"/>
<path d="M138.196 104.358C141.379 108.331 140.154 107.832 143.584 107.818C147.014 107.804 143.584 82.492 143.584 82.492" stroke="#4E4E4E" stroke-width="5"/>
<path d="M122 128.233C122.424 125.117 124.332 123.662 126.452 122" stroke="#4E4E4E" stroke-width="2"/>
<path d="M111.696 80.6163C113.409 109.615 142.209 98.8855 143.113 82.3562C144.018 65.8269 109.982 51.6181 111.696 80.6163Z" fill="#F7F8D3" stroke="#4E4E4E" stroke-width="5"/>
<path d="M174.79 78.8773C173.046 107.809 143.737 97.1043 142.816 80.6132C141.896 64.122 176.534 49.946 174.79 78.8773Z" fill="#F7F8D3" stroke="#4E4E4E" stroke-width="5"/>
<path d="M169.481 41.2065C169.481 33.248 168.279 27.4001 166.377 23.1946C157.585 20.3466 141.908 25.1557 141.908 20.6591C141.908 14.9055 159.169 7.25851 166.377 23.1946C171.803 24.9524 174.606 29.627 169.481 41.2065Z" fill="#4E4E4E"/>
<path d="M168.87 61.3233C169.481 53.2766 169.481 48.4062 169.481 41.2065M169.481 41.2065C169.481 3.09055 141.908 13.3872 141.908 20.6591C141.908 27.931 182.91 10.8654 169.481 41.2065Z" stroke="#4E4E4E" stroke-width="5"/>
<path fill-rule="evenodd" clip-rule="evenodd" d="M162.393 133.92C157.802 157.02 142.461 167.456 129.893 158.72C127.17 156.202 124.489 153.311 122.602 151.172C123.201 151.907 123.914 152.786 124.749 153.824C126.382 155.854 128.109 157.48 129.893 158.72C132.485 161.117 135.116 163.176 137.14 163.926C136.295 166.31 135.775 171.672 149.4 161.146C158.252 154.306 167.558 161.3 174.034 166.168C177.526 168.793 180.196 170.799 181.529 169.686C183.747 167.833 178.637 146.671 172.984 134.659L162.393 133.92Z" fill="#4E4E4E"/>
<path d="M162.393 133.92L162.567 131.426L160.37 131.272L159.941 133.432L162.393 133.92ZM122.602 151.172L124.476 149.518L120.665 152.753L122.602 151.172ZM124.749 153.824L126.697 152.257L126.697 152.257L124.749 153.824ZM137.14 163.926L139.497 164.762L140.32 162.439L138.01 161.582L137.14 163.926ZM149.4 161.146L150.929 163.124L149.4 161.146ZM174.034 166.168L175.536 164.17H175.536L174.034 166.168ZM181.529 169.686L183.132 171.605L183.132 171.605L181.529 169.686ZM172.984 134.659L175.246 133.595L174.621 132.268L173.158 132.165L172.984 134.659ZM159.941 133.432C157.724 144.587 152.977 152.324 147.652 156.245C142.466 160.065 136.659 160.378 131.32 156.667L128.466 160.773C135.695 165.798 143.843 165.261 150.617 160.271C157.253 155.384 162.471 146.352 164.845 134.407L159.941 133.432ZM131.59 156.884C128.953 154.446 126.335 151.625 124.476 149.518L120.727 152.826C122.643 154.997 125.386 157.957 128.196 160.556L131.59 156.884ZM120.665 152.753C121.26 153.483 121.969 154.357 122.801 155.391L126.697 152.257C125.858 151.215 125.142 150.331 124.538 149.591L120.665 152.753ZM122.801 155.391C124.564 157.583 126.463 159.38 128.466 160.773L131.32 156.667C129.756 155.58 128.199 154.125 126.697 152.257L122.801 155.391ZM128.196 160.556C130.776 162.942 133.731 165.328 136.271 166.27L138.01 161.582C136.502 161.023 134.194 159.292 131.59 156.884L128.196 160.556ZM134.784 163.09C134.529 163.811 134.21 164.971 134.289 166.145C134.33 166.752 134.488 167.543 134.991 168.28C135.537 169.079 136.352 169.609 137.307 169.819C138.955 170.181 140.833 169.557 142.748 168.586C144.803 167.544 147.466 165.799 150.929 163.124L147.872 159.167C144.521 161.756 142.14 163.288 140.487 164.127C138.694 165.036 138.2 164.896 138.381 164.936C138.602 164.984 138.909 165.151 139.12 165.459C139.287 165.704 139.282 165.877 139.278 165.81C139.266 165.637 139.33 165.233 139.497 164.762L134.784 163.09ZM150.929 163.124C154.525 160.346 158.124 160.331 161.774 161.623C165.592 162.975 169.233 165.687 172.532 168.167L175.536 164.17C172.36 161.782 168.109 158.562 163.443 156.91C158.608 155.198 153.128 155.106 147.872 159.167L150.929 163.124ZM172.532 168.167C174.219 169.434 175.928 170.727 177.398 171.525C178.134 171.925 179.003 172.313 179.922 172.448C180.913 172.594 182.11 172.458 183.132 171.605L179.926 167.767C180.073 167.644 180.25 167.561 180.42 167.523C180.575 167.488 180.665 167.504 180.651 167.502C180.585 167.492 180.32 167.423 179.785 167.132C178.714 166.55 177.342 165.527 175.536 164.17L172.532 168.167ZM183.132 171.605C183.787 171.057 184.09 170.355 184.242 169.881C184.405 169.372 184.483 168.836 184.523 168.338C184.602 167.339 184.546 166.141 184.411 164.859C184.139 162.273 183.504 158.959 182.637 155.392C180.904 148.261 178.165 139.797 175.246 133.595L170.722 135.724C173.455 141.533 176.098 149.656 177.779 156.573C178.619 160.029 179.199 163.104 179.438 165.382C179.559 166.532 179.582 167.385 179.538 167.945C179.528 168.078 179.515 168.179 179.502 168.253C179.489 168.328 179.479 168.36 179.479 168.358C179.48 168.356 179.485 168.34 179.496 168.315C179.507 168.289 179.526 168.249 179.556 168.198C179.613 168.1 179.727 167.934 179.926 167.767L183.132 171.605ZM173.158 132.165L162.567 131.426L162.219 136.414L172.809 137.153L173.158 132.165Z" fill="#4E4E4E"/>
<path d="M83.1591 168.974C86.7203 154.869 132.097 178.227 131.426 189.155L83.1591 168.974Z" fill="#4E4E4E" stroke="#4E4E4E" stroke-width="5"/>
<line x1="109.906" y1="74.7217" x2="85.3868" y2="63.7303" stroke="#4E4E4E" stroke-width="5"/>
<path d="M122.275 16.3675C128.151 -1.15741 187.736 -7.20787 178.294 38.6906M94.7911 3.8496C105.282 0.720134 131.508 5.72736 117.66 27.4248C131.508 5.72736 79.0554 3.22371 77.7966 32.2232C87.238 17.4105 74.8593 56.6329 85.5595 52.043" stroke="#4E4E4E" stroke-width="5"/>
<path d="M130 127.968C132.96 131.783 147.761 132.207 152.201 125" stroke="#4E4E4E" stroke-width="3"/>
<path d="M130 127.968C132.96 131.783 147.761 132.207 152.201 125" stroke="#4E4E4E" stroke-width="3"/>
<path d="M130 127.968C132.96 131.783 147.761 132.207 152.201 125" stroke="#4E4E4E" stroke-width="3"/>
<path d="M152 58.7053C154.96 54.89 169.761 54.466 174.201 61.6729" stroke="black" stroke-width="3"/>
<path d="M134.201 59.7053C131.241 55.89 116.44 55.466 112 62.6729" stroke="black" stroke-width="3"/>
</svg>
