<svg width="21" height="26" viewBox="0 0 21 26" fill="none" xmlns="http://www.w3.org/2000/svg">
<path d="M0.5 0.5H20.5V24.7H0.5V0.5Z" fill="white" stroke="#595959"/>
<mask id="path-2-inside-1" fill="white">
<path d="M17.4997 10.802H3.49972C3.405 10.802 3.31416 10.7654 3.24718 10.7004C3.1802 10.6354 3.14258 10.5472 3.14258 10.4552C3.14258 10.3632 3.1802 10.275 3.24718 10.21C3.31416 10.1449 3.405 10.1084 3.49972 10.1084H17.4997C17.5945 10.1084 17.6853 10.1449 17.7523 10.21C17.8193 10.275 17.8569 10.3632 17.8569 10.4552C17.8569 10.5472 17.8193 10.6354 17.7523 10.7004C17.6853 10.7654 17.5945 10.802 17.4997 10.802Z"/>
</mask>
<path d="M17.4997 10.802H3.49972C3.405 10.802 3.31416 10.7654 3.24718 10.7004C3.1802 10.6354 3.14258 10.5472 3.14258 10.4552C3.14258 10.3632 3.1802 10.275 3.24718 10.21C3.31416 10.1449 3.405 10.1084 3.49972 10.1084H17.4997C17.5945 10.1084 17.6853 10.1449 17.7523 10.21C17.8193 10.275 17.8569 10.3632 17.8569 10.4552C17.8569 10.5472 17.8193 10.6354 17.7523 10.7004C17.6853 10.7654 17.5945 10.802 17.4997 10.802Z" fill="#5A5A5A"/>
<path d="M17.4997 9.80198H3.49972V11.802H17.4997V9.80198ZM3.49972 9.80198C3.66087 9.80198 3.82114 9.86386 3.94381 9.98297L2.55055 11.4178C2.80718 11.667 3.14913 11.802 3.49972 11.802V9.80198ZM3.94381 9.98297C4.06748 10.1031 4.14258 10.2723 4.14258 10.4552H2.14258C2.14258 10.822 2.29293 11.1677 2.55055 11.4178L3.94381 9.98297ZM4.14258 10.4552C4.14258 10.6381 4.06748 10.8073 3.94381 10.9274L2.55055 9.49254C2.29293 9.7427 2.14258 10.0884 2.14258 10.4552H4.14258ZM3.94381 10.9274C3.82114 11.0465 3.66087 11.1084 3.49972 11.1084V9.1084C3.14913 9.1084 2.80718 9.24335 2.55055 9.49254L3.94381 10.9274ZM3.49972 11.1084H17.4997V9.1084H3.49972V11.1084ZM17.4997 11.1084C17.3386 11.1084 17.1783 11.0465 17.0556 10.9274L18.4489 9.49254C18.1923 9.24335 17.8503 9.1084 17.4997 9.1084V11.1084ZM17.0556 10.9274C16.932 10.8073 16.8569 10.6381 16.8569 10.4552H18.8569C18.8569 10.0884 18.7065 9.7427 18.4489 9.49254L17.0556 10.9274ZM16.8569 10.4552C16.8569 10.2723 16.932 10.1031 17.0556 9.98297L18.4489 11.4178C18.7065 11.1677 18.8569 10.822 18.8569 10.4552H16.8569ZM17.0556 9.98297C17.1783 9.86386 17.3386 9.80198 17.4997 9.80198V11.802C17.8503 11.802 18.1923 11.667 18.4489 11.4178L17.0556 9.98297Z" fill="#595959" mask="url(#path-2-inside-1)"/>
<mask id="path-4-inside-2" fill="white">
<path d="M17.6202 4.34104H8.33216C8.2013 4.34104 8.09521 4.18577 8.09521 3.99425C8.09521 3.80273 8.2013 3.64746 8.33216 3.64746H17.6202C17.7511 3.64746 17.8571 3.80273 17.8571 3.99425C17.8571 4.18577 17.7511 4.34104 17.6202 4.34104Z"/>
</mask>
<path d="M17.6202 4.34104H8.33216C8.2013 4.34104 8.09521 4.18577 8.09521 3.99425C8.09521 3.80273 8.2013 3.64746 8.33216 3.64746H17.6202C17.7511 3.64746 17.8571 3.80273 17.8571 3.99425C17.8571 4.18577 17.7511 4.34104 17.6202 4.34104Z" fill="#5A5A5A"/>
<path d="M17.6202 3.34104H8.33216V5.34104H17.6202V3.34104ZM8.33216 3.34104C8.6937 3.34104 8.90893 3.55624 8.99029 3.67532C9.07501 3.79932 9.09521 3.9151 9.09521 3.99425H7.09521C7.09521 4.26492 7.16846 4.5541 7.33894 4.80361C7.50605 5.0482 7.83976 5.34104 8.33216 5.34104V3.34104ZM9.09521 3.99425C9.09521 4.0734 9.07501 4.18918 8.99029 4.31318C8.90893 4.43226 8.6937 4.64746 8.33216 4.64746V2.64746C7.83976 2.64746 7.50605 2.9403 7.33894 3.18489C7.16846 3.4344 7.09521 3.72357 7.09521 3.99425H9.09521ZM8.33216 4.64746H17.6202V2.64746H8.33216V4.64746ZM17.6202 4.64746C17.2587 4.64746 17.0434 4.43227 16.962 4.31315C16.8773 4.18914 16.8571 4.07336 16.8571 3.99425H18.8571C18.8571 3.72361 18.7839 3.43444 18.6134 3.18492C18.4463 2.94028 18.1126 2.64746 17.6202 2.64746V4.64746ZM16.8571 3.99425C16.8571 3.91514 16.8773 3.79936 16.962 3.67535C17.0434 3.55622 17.2587 3.34104 17.6202 3.34104V5.34104C18.1126 5.34104 18.4463 5.04822 18.6134 4.80358C18.7839 4.55406 18.8571 4.26489 18.8571 3.99425H16.8571Z" fill="#595959" mask="url(#path-4-inside-2)"/>
<mask id="path-6-inside-3" fill="white">
<path d="M17.6202 6.32932H8.33216C8.2013 6.32932 8.09521 6.17406 8.09521 5.98253C8.09521 5.79101 8.2013 5.63574 8.33216 5.63574H17.6202C17.7511 5.63574 17.8571 5.79101 17.8571 5.98253C17.8571 6.17406 17.7511 6.32932 17.6202 6.32932Z"/>
</mask>
<path d="M17.6202 6.32932H8.33216C8.2013 6.32932 8.09521 6.17406 8.09521 5.98253C8.09521 5.79101 8.2013 5.63574 8.33216 5.63574H17.6202C17.7511 5.63574 17.8571 5.79101 17.8571 5.98253C17.8571 6.17406 17.7511 6.32932 17.6202 6.32932Z" fill="#5A5A5A"/>
<path d="M17.6202 5.32932H8.33216V7.32932H17.6202V5.32932ZM8.33216 5.32932C8.6937 5.32932 8.90893 5.54452 8.99029 5.66361C9.07501 5.7876 9.09521 5.90338 9.09521 5.98253H7.09521C7.09521 6.25321 7.16846 6.54238 7.33894 6.79189C7.50605 7.03648 7.83976 7.32932 8.33216 7.32932V5.32932ZM9.09521 5.98253C9.09521 6.06168 9.07501 6.17746 8.99029 6.30146C8.90893 6.42054 8.6937 6.63574 8.33216 6.63574V4.63574C7.83976 4.63574 7.50605 4.92858 7.33894 5.17317C7.16846 5.42268 7.09521 5.71186 7.09521 5.98253H9.09521ZM8.33216 6.63574H17.6202V4.63574H8.33216V6.63574ZM17.6202 6.63574C17.2587 6.63574 17.0434 6.42056 16.962 6.30143C16.8773 6.17743 16.8571 6.06165 16.8571 5.98253H18.8571C18.8571 5.71189 18.7839 5.42272 18.6134 5.1732C18.4463 4.92856 18.1126 4.63574 17.6202 4.63574V6.63574ZM16.8571 5.98253C16.8571 5.90342 16.8773 5.78764 16.962 5.66363C17.0434 5.54451 17.2587 5.32932 17.6202 5.32932V7.32932C18.1126 7.32932 18.4463 7.0365 18.6134 6.79186C18.7839 6.54234 18.8571 6.25317 18.8571 5.98253H16.8571Z" fill="#595959" mask="url(#path-6-inside-3)"/>
<mask id="path-8-inside-4" fill="white">
<path d="M17.4997 13.0451H3.49972C3.405 13.0451 3.31416 13.0086 3.24718 12.9436C3.1802 12.8785 3.14258 12.7903 3.14258 12.6984C3.14258 12.6064 3.1802 12.5182 3.24718 12.4531C3.31416 12.3881 3.405 12.3516 3.49972 12.3516H17.4997C17.5945 12.3516 17.6853 12.3881 17.7523 12.4531C17.8193 12.5182 17.8569 12.6064 17.8569 12.6984C17.8569 12.7903 17.8193 12.8785 17.7523 12.9436C17.6853 13.0086 17.5945 13.0451 17.4997 13.0451Z"/>
</mask>
<path d="M17.4997 13.0451H3.49972C3.405 13.0451 3.31416 13.0086 3.24718 12.9436C3.1802 12.8785 3.14258 12.7903 3.14258 12.6984C3.14258 12.6064 3.1802 12.5182 3.24718 12.4531C3.31416 12.3881 3.405 12.3516 3.49972 12.3516H17.4997C17.5945 12.3516 17.6853 12.3881 17.7523 12.4531C17.8193 12.5182 17.8569 12.6064 17.8569 12.6984C17.8569 12.7903 17.8193 12.8785 17.7523 12.9436C17.6853 13.0086 17.5945 13.0451 17.4997 13.0451Z" fill="#5A5A5A"/>
<path d="M17.4997 12.0451H3.49972V14.0451H17.4997V12.0451ZM3.49972 12.0451C3.66087 12.0451 3.82114 12.107 3.94381 12.2261L2.55055 13.661C2.80718 13.9102 3.14913 14.0451 3.49972 14.0451V12.0451ZM3.94381 12.2261C4.06748 12.3462 4.14258 12.5155 4.14258 12.6984H2.14258C2.14258 13.0652 2.29293 13.4108 2.55055 13.661L3.94381 12.2261ZM4.14258 12.6984C4.14258 12.8812 4.06748 13.0505 3.94381 13.1706L2.55055 11.7357C2.29293 11.9859 2.14258 12.3315 2.14258 12.6984H4.14258ZM3.94381 13.1706C3.82114 13.2897 3.66087 13.3516 3.49972 13.3516V11.3516C3.14913 11.3516 2.80718 11.4865 2.55055 11.7357L3.94381 13.1706ZM3.49972 13.3516H17.4997V11.3516H3.49972V13.3516ZM17.4997 13.3516C17.3386 13.3516 17.1783 13.2897 17.0556 13.1706L18.4489 11.7357C18.1923 11.4865 17.8503 11.3516 17.4997 11.3516V13.3516ZM17.0556 13.1706C16.932 13.0505 16.8569 12.8812 16.8569 12.6984H18.8569C18.8569 12.3315 18.7065 11.9859 18.4489 11.7357L17.0556 13.1706ZM16.8569 12.6984C16.8569 12.5155 16.932 12.3462 17.0556 12.2261L18.4489 13.661C18.7065 13.4108 18.8569 13.0652 18.8569 12.6984H16.8569ZM17.0556 12.2261C17.1783 12.107 17.3386 12.0451 17.4997 12.0451V14.0451C17.8503 14.0451 18.1923 13.9102 18.4489 13.661L17.0556 12.2261Z" fill="#595959" mask="url(#path-8-inside-4)"/>
<mask id="path-10-inside-5" fill="white">
<path d="M17.4997 15.2873H3.49972C3.405 15.2873 3.31416 15.2508 3.24718 15.1858C3.1802 15.1207 3.14258 15.0325 3.14258 14.9405C3.14258 14.8486 3.1802 14.7604 3.24718 14.6953C3.31416 14.6303 3.405 14.5938 3.49972 14.5938H17.4997C17.5945 14.5938 17.6853 14.6303 17.7523 14.6953C17.8193 14.7604 17.8569 14.8486 17.8569 14.9405C17.8569 15.0325 17.8193 15.1207 17.7523 15.1858C17.6853 15.2508 17.5945 15.2873 17.4997 15.2873V15.2873Z"/>
</mask>
<path d="M17.4997 15.2873H3.49972C3.405 15.2873 3.31416 15.2508 3.24718 15.1858C3.1802 15.1207 3.14258 15.0325 3.14258 14.9405C3.14258 14.8486 3.1802 14.7604 3.24718 14.6953C3.31416 14.6303 3.405 14.5938 3.49972 14.5938H17.4997C17.5945 14.5938 17.6853 14.6303 17.7523 14.6953C17.8193 14.7604 17.8569 14.8486 17.8569 14.9405C17.8569 15.0325 17.8193 15.1207 17.7523 15.1858C17.6853 15.2508 17.5945 15.2873 17.4997 15.2873V15.2873Z" fill="#5A5A5A"/>
<path d="M3.49972 15.2873V16.2873V15.2873ZM17.4997 14.5938L17.4997 15.5938L17.4997 14.5938ZM17.4997 14.2873H3.49972V16.2873H17.4997V14.2873ZM3.49972 14.2873C3.66087 14.2873 3.82114 14.3492 3.94381 14.4683L2.55055 15.9032C2.80718 16.1524 3.14913 16.2873 3.49972 16.2873L3.49972 14.2873ZM3.94381 14.4683C4.06748 14.5884 4.14258 14.7577 4.14258 14.9405H2.14258C2.14258 15.3074 2.29293 15.653 2.55055 15.9032L3.94381 14.4683ZM4.14258 14.9405C4.14258 15.1234 4.06748 15.2927 3.94381 15.4128L2.55055 13.9779C2.29293 14.228 2.14258 14.5737 2.14258 14.9405H4.14258ZM3.94381 15.4128C3.82114 15.5319 3.66087 15.5938 3.49972 15.5938V13.5938C3.14913 13.5938 2.80718 13.7287 2.55055 13.9779L3.94381 15.4128ZM3.49972 15.5938H17.4997V13.5938H3.49972V15.5938ZM17.4997 15.5938C17.3386 15.5938 17.1783 15.5319 17.0556 15.4128L18.4489 13.9779C18.1923 13.7287 17.8503 13.5937 17.4997 13.5938L17.4997 15.5938ZM17.0556 15.4128C16.932 15.2927 16.8569 15.1234 16.8569 14.9405H18.8569C18.8569 14.5737 18.7065 14.2281 18.4489 13.9779L17.0556 15.4128ZM16.8569 14.9405C16.8569 14.7577 16.932 14.5884 17.0556 14.4683L18.4489 15.9032C18.7065 15.653 18.8569 15.3074 18.8569 14.9405H16.8569ZM17.0556 14.4683C17.1783 14.3492 17.3386 14.2873 17.4997 14.2873V16.2873C17.8503 16.2873 18.1923 16.1524 18.4489 15.9032L17.0556 14.4683Z" fill="#595959" mask="url(#path-10-inside-5)"/>
<mask id="path-12-inside-6" fill="white">
<path d="M17.4997 17.5305H3.49972C3.405 17.5305 3.31416 17.494 3.24718 17.4289C3.1802 17.3639 3.14258 17.2757 3.14258 17.1837C3.14258 17.0917 3.1802 17.0035 3.24718 16.9385C3.31416 16.8735 3.405 16.8369 3.49972 16.8369H17.4997C17.5945 16.8369 17.6853 16.8735 17.7523 16.9385C17.8193 17.0035 17.8569 17.0917 17.8569 17.1837C17.8569 17.2757 17.8193 17.3639 17.7523 17.4289C17.6853 17.494 17.5945 17.5305 17.4997 17.5305Z"/>
</mask>
<path d="M17.4997 17.5305H3.49972C3.405 17.5305 3.31416 17.494 3.24718 17.4289C3.1802 17.3639 3.14258 17.2757 3.14258 17.1837C3.14258 17.0917 3.1802 17.0035 3.24718 16.9385C3.31416 16.8735 3.405 16.8369 3.49972 16.8369H17.4997C17.5945 16.8369 17.6853 16.8735 17.7523 16.9385C17.8193 17.0035 17.8569 17.0917 17.8569 17.1837C17.8569 17.2757 17.8193 17.3639 17.7523 17.4289C17.6853 17.494 17.5945 17.5305 17.4997 17.5305Z" fill="#5A5A5A"/>
<path d="M17.4997 16.5305H3.49972V18.5305H17.4997V16.5305ZM3.49972 16.5305C3.66086 16.5305 3.82113 16.5924 3.94381 16.7115L2.55055 18.1464C2.80718 18.3955 3.14914 18.5305 3.49972 18.5305V16.5305ZM3.94381 16.7115C4.06749 16.8316 4.14258 17.0008 4.14258 17.1837H2.14258C2.14258 17.5505 2.29292 17.8962 2.55055 18.1464L3.94381 16.7115ZM4.14258 17.1837C4.14258 17.3666 4.06748 17.5358 3.94381 17.6559L2.55055 16.2211C2.29293 16.4712 2.14258 16.8169 2.14258 17.1837H4.14258ZM3.94381 17.6559C3.82115 17.775 3.66088 17.8369 3.49972 17.8369V15.8369C3.14912 15.8369 2.80717 15.9719 2.55055 16.2211L3.94381 17.6559ZM3.49972 17.8369H17.4997V15.8369H3.49972V17.8369ZM17.4997 17.8369C17.3386 17.8369 17.1783 17.775 17.0556 17.6559L18.4489 16.2211C18.1923 15.9719 17.8503 15.8369 17.4997 15.8369V17.8369ZM17.0556 17.6559C16.932 17.5358 16.8569 17.3666 16.8569 17.1837H18.8569C18.8569 16.8169 18.7065 16.4712 18.4489 16.2211L17.0556 17.6559ZM16.8569 17.1837C16.8569 17.0008 16.932 16.8316 17.0556 16.7115L18.4489 18.1464C18.7065 17.8962 18.8569 17.5505 18.8569 17.1837H16.8569ZM17.0556 16.7115C17.1783 16.5924 17.3386 16.5305 17.4997 16.5305V18.5305C17.8503 18.5305 18.1923 18.3955 18.4489 18.1464L17.0556 16.7115Z" fill="#595959" mask="url(#path-12-inside-6)"/>
<mask id="path-14-inside-7" fill="white">
<path d="M17.4997 19.7727H3.49972C3.405 19.7727 3.31416 19.7361 3.24718 19.6711C3.1802 19.6061 3.14258 19.5179 3.14258 19.4259C3.14258 19.3339 3.1802 19.2457 3.24718 19.1807C3.31416 19.1156 3.405 19.0791 3.49972 19.0791H17.4997C17.5945 19.0791 17.6853 19.1156 17.7523 19.1807C17.8193 19.2457 17.8569 19.3339 17.8569 19.4259C17.8569 19.5179 17.8193 19.6061 17.7523 19.6711C17.6853 19.7361 17.5945 19.7727 17.4997 19.7727Z"/>
</mask>
<path d="M17.4997 19.7727H3.49972C3.405 19.7727 3.31416 19.7361 3.24718 19.6711C3.1802 19.6061 3.14258 19.5179 3.14258 19.4259C3.14258 19.3339 3.1802 19.2457 3.24718 19.1807C3.31416 19.1156 3.405 19.0791 3.49972 19.0791H17.4997C17.5945 19.0791 17.6853 19.1156 17.7523 19.1807C17.8193 19.2457 17.8569 19.3339 17.8569 19.4259C17.8569 19.5179 17.8193 19.6061 17.7523 19.6711C17.6853 19.7361 17.5945 19.7727 17.4997 19.7727Z" fill="#5A5A5A"/>
<path d="M17.4997 18.7727H3.49972V20.7727H17.4997V18.7727ZM3.49972 18.7727C3.66086 18.7727 3.82113 18.8346 3.94381 18.9537L2.55055 20.3885C2.80718 20.6377 3.14914 20.7727 3.49972 20.7727V18.7727ZM3.94381 18.9537C4.06749 19.0738 4.14258 19.243 4.14258 19.4259H2.14258C2.14258 19.7927 2.29292 20.1384 2.55055 20.3885L3.94381 18.9537ZM4.14258 19.4259C4.14258 19.6088 4.06748 19.778 3.94381 19.8981L2.55055 18.4632C2.29293 18.7134 2.14258 19.0591 2.14258 19.4259H4.14258ZM3.94381 19.8981C3.82115 20.0172 3.66088 20.0791 3.49972 20.0791V18.0791C3.14912 18.0791 2.80717 18.2141 2.55055 18.4632L3.94381 19.8981ZM3.49972 20.0791H17.4997V18.0791H3.49972V20.0791ZM17.4997 20.0791C17.3386 20.0791 17.1783 20.0172 17.0556 19.8981L18.4489 18.4632C18.1923 18.2141 17.8503 18.0791 17.4997 18.0791V20.0791ZM17.0556 19.8981C16.932 19.778 16.8569 19.6088 16.8569 19.4259H18.8569C18.8569 19.0591 18.7065 18.7134 18.4489 18.4632L17.0556 19.8981ZM16.8569 19.4259C16.8569 19.243 16.932 19.0738 17.0556 18.9537L18.4489 20.3885C18.7065 20.1384 18.8569 19.7927 18.8569 19.4259H16.8569ZM17.0556 18.9537C17.1783 18.8346 17.3386 18.7727 17.4997 18.7727V20.7727C17.8503 20.7727 18.1923 20.6377 18.4489 20.3885L17.0556 18.9537Z" fill="#595959" mask="url(#path-14-inside-7)"/>
<mask id="path-16-inside-8" fill="white">
<path d="M17.4997 22.0149H3.49972C3.405 22.0149 3.31416 21.9783 3.24718 21.9133C3.1802 21.8483 3.14258 21.7601 3.14258 21.6681C3.14258 21.5761 3.1802 21.4879 3.24718 21.4229C3.31416 21.3578 3.405 21.3213 3.49972 21.3213H17.4997C17.5945 21.3213 17.6853 21.3578 17.7523 21.4229C17.8193 21.4879 17.8569 21.5761 17.8569 21.6681C17.8569 21.7601 17.8193 21.8483 17.7523 21.9133C17.6853 21.9783 17.5945 22.0149 17.4997 22.0149Z"/>
</mask>
<path d="M17.4997 22.0149H3.49972C3.405 22.0149 3.31416 21.9783 3.24718 21.9133C3.1802 21.8483 3.14258 21.7601 3.14258 21.6681C3.14258 21.5761 3.1802 21.4879 3.24718 21.4229C3.31416 21.3578 3.405 21.3213 3.49972 21.3213H17.4997C17.5945 21.3213 17.6853 21.3578 17.7523 21.4229C17.8193 21.4879 17.8569 21.5761 17.8569 21.6681C17.8569 21.7601 17.8193 21.8483 17.7523 21.9133C17.6853 21.9783 17.5945 22.0149 17.4997 22.0149Z" fill="#5A5A5A"/>
<path d="M17.4997 21.0149H3.49972V23.0149H17.4997V21.0149ZM3.49972 21.0149C3.66086 21.0149 3.82113 21.0767 3.94381 21.1959L2.55055 22.6307C2.80718 22.8799 3.14914 23.0149 3.49972 23.0149V21.0149ZM3.94381 21.1959C4.06749 21.316 4.14258 21.4852 4.14258 21.6681H2.14258C2.14258 22.0349 2.29292 22.3806 2.55055 22.6307L3.94381 21.1959ZM4.14258 21.6681C4.14258 21.851 4.06748 22.0202 3.94381 22.1403L2.55055 20.7054C2.29293 20.9556 2.14258 21.3012 2.14258 21.6681H4.14258ZM3.94381 22.1403C3.82115 22.2594 3.66088 22.3213 3.49972 22.3213V20.3213C3.14912 20.3213 2.80717 20.4563 2.55055 20.7054L3.94381 22.1403ZM3.49972 22.3213H17.4997V20.3213H3.49972V22.3213ZM17.4997 22.3213C17.3386 22.3213 17.1783 22.2594 17.0556 22.1403L18.4489 20.7054C18.1923 20.4563 17.8503 20.3213 17.4997 20.3213V22.3213ZM17.0556 22.1403C16.932 22.0202 16.8569 21.851 16.8569 21.6681H18.8569C18.8569 21.3012 18.7065 20.9556 18.4489 20.7054L17.0556 22.1403ZM16.8569 21.6681C16.8569 21.4852 16.932 21.316 17.0556 21.1959L18.4489 22.6307C18.7065 22.3806 18.8569 22.0349 18.8569 21.6681H16.8569ZM17.0556 21.1959C17.1783 21.0767 17.3386 21.0149 17.4997 21.0149V23.0149C17.8503 23.0149 18.1923 22.8799 18.4489 22.6307L17.0556 21.1959Z" fill="#595959" mask="url(#path-16-inside-8)"/>
<path d="M6.40449 5.01099C6.40449 5.72979 5.80018 6.33741 5.02353 6.33741C4.24688 6.33741 3.64258 5.72979 3.64258 5.01099C3.64258 4.29219 4.24688 3.68457 5.02353 3.68457C5.80018 3.68457 6.40449 4.29219 6.40449 5.01099Z" fill="#5A5A5A" stroke="#595959"/>
</svg>
