<svg width="31" height="30" viewBox="0 0 31 30" fill="none" xmlns="http://www.w3.org/2000/svg">
<path d="M20.3901 11.3203C20.4351 11.3758 20.4785 11.4328 20.5219 11.4906C20.4785 11.4328 20.4351 11.3759 20.3901 11.3203Z" fill="#78B9EB"/>
<path d="M19.9126 10.7861C19.9444 10.8176 19.9723 10.8514 20.0032 10.8836C19.9724 10.8514 19.9444 10.8176 19.9126 10.7861Z" fill="#78B9EB"/>
<path d="M20.834 11.9512C20.8619 11.997 20.8929 12.0412 20.92 12.0877C20.8928 12.0412 20.8619 11.9992 20.834 11.9512Z" fill="#78B9EB"/>
<path d="M21.2349 12.7217C21.2558 12.772 21.2728 12.8244 21.293 12.8717C21.2728 12.8244 21.2558 12.7719 21.2349 12.7217Z" fill="#78B9EB"/>
<path d="M19.23 10.2148C19.2788 10.2509 19.33 10.2853 19.378 10.3221C19.3299 10.2846 19.2788 10.2509 19.23 10.2148Z" fill="#78B9EB"/>
<path d="M18.5864 9.7998C18.6492 9.83434 18.7104 9.87477 18.7724 9.90852C18.7104 9.87178 18.6492 9.83505 18.5864 9.7998Z" fill="#78B9EB"/>
<path d="M18.9985 19.9489C19.4565 19.67 19.8859 19.3504 20.2819 18.9935C20.3912 18.8937 20.4873 18.7797 20.5664 18.656C20.991 17.993 21.3049 17.2692 21.4964 16.5117C21.1189 17.9112 20.2323 19.1323 18.9985 19.9489Z" fill="#78B9EB"/>
<path d="M16.2686 9.05078C16.3422 9.05904 16.4142 9.07179 16.4863 9.08303C16.4142 9.07477 16.3422 9.05904 16.2686 9.05078Z" fill="#78B9EB"/>
<path d="M17.9326 9.47949C17.9598 9.49074 17.9846 9.50498 18.0101 9.51623C17.9846 9.50498 17.9597 9.49074 17.9326 9.47949Z" fill="#78B9EB"/>
<path d="M21.4727 13.4092C21.4928 13.4797 21.5114 13.5502 21.5292 13.6214C21.5114 13.5502 21.4928 13.4797 21.4727 13.4092Z" fill="#78B9EB"/>
<path d="M15.4709 21C15.295 21 15.1237 20.9828 14.9517 20.9678C15.1237 20.9813 15.295 21 15.4709 21Z" fill="#78B9EB"/>
<path d="M17.0691 20.7988L16.9761 20.8221L17.0691 20.7988Z" fill="#78B9EB"/>
<path d="M21.6401 14.2148C21.6463 14.2591 21.6557 14.3019 21.661 14.3461C21.6556 14.3019 21.6463 14.2591 21.6401 14.2148Z" fill="#78B9EB"/>
<path d="M14.6961 20.949C14.445 20.9167 14.1954 20.8717 13.9497 20.8125C14.1954 20.8717 14.445 20.9167 14.6961 20.949Z" fill="#78B9EB"/>
<path d="M16.3014 20.9443C16.2657 20.9488 16.2325 20.9556 16.1968 20.9594C16.2317 20.9556 16.2665 20.9488 16.3014 20.9443Z" fill="#78B9EB"/>
<path d="M18.8975 20.0156C18.7874 20.0854 18.6743 20.1506 18.5596 20.2143C18.6766 20.1544 18.7852 20.0831 18.8975 20.0156Z" fill="#78B9EB"/>
<path d="M21.6951 15.0889C21.6951 15.1541 21.6881 15.2179 21.6851 15.2824C21.6881 15.2179 21.6944 15.1496 21.6951 15.0889Z" fill="#78B9EB"/>
<path d="M21.6298 15.8525C21.6166 15.941 21.605 16.0303 21.5879 16.1173C21.6042 16.0288 21.6174 15.941 21.6298 15.8525Z" fill="#78B9EB"/>
<path d="M17.0405 9.19434C17.1072 9.21086 17.1746 9.22509 17.2405 9.24381C17.1746 9.22509 17.1072 9.21086 17.0405 9.19434Z" fill="#78B9EB"/>
<path d="M2.33978 17.9972H3.19135C3.83309 17.9972 4.40669 18.3823 4.63276 18.9636C4.72103 19.1884 4.81619 19.4093 4.91843 19.6266C5.18632 20.1929 5.06322 20.8604 4.60881 21.3017L4.00418 21.8928C3.40118 22.478 3.40118 23.4249 4.00418 24.0099L6.19184 26.127C6.79647 26.7105 7.77495 26.7105 8.37949 26.127L8.98721 25.5412C9.44316 25.1014 10.1329 24.9823 10.7182 25.2415C10.9427 25.3412 11.1711 25.4334 11.4033 25.518C12.004 25.736 12.4027 26.2911 12.4035 26.9122V27.7363C12.4035 28.5641 13.0963 29.2346 13.9517 29.2346H17.0482C17.9036 29.2346 18.5965 28.5641 18.5965 27.7363V26.9122C18.5965 26.2912 18.9944 25.7361 19.5951 25.5173C19.8273 25.4319 20.0557 25.3398 20.2802 25.2408C20.8654 24.9816 21.5551 25.1007 22.0112 25.5405L22.6189 26.1263C23.2235 26.7098 24.202 26.7098 24.8066 26.1263L26.9942 24.0092C27.5972 23.4241 27.5972 22.4772 26.9942 21.8921L26.3889 21.304C25.9345 20.8628 25.8114 20.1953 26.0792 19.6289C26.1822 19.4116 26.2775 19.1906 26.3649 18.9659C26.5902 18.3831 27.1654 17.9972 27.8087 17.9972H28.6602C29.5156 17.9972 30.2085 17.3268 30.2085 16.4989V13.5023C30.2085 12.6745 29.5157 12.004 28.6602 12.004H27.8087C27.1669 12.004 26.5933 11.6189 26.3673 11.0376C26.279 10.8129 26.1838 10.5919 26.0816 10.3746C25.813 9.80826 25.9368 9.14079 26.3912 8.69946L26.9966 8.11135C27.5996 7.52623 27.5996 6.57932 26.9966 5.99428L24.8087 3.87721C24.2041 3.29366 23.2256 3.29366 22.6211 3.87721L22.0134 4.46303C21.5574 4.90278 20.8677 5.02191 20.2824 4.76266C20.0579 4.66302 19.8295 4.57084 19.5973 4.48621C18.995 4.26822 18.5963 3.71163 18.5963 3.08902V2.26493C18.5963 1.43715 17.9035 0.766602 17.048 0.766602H13.9516C13.0963 0.766602 12.4034 1.43706 12.4034 2.26493V3.08902C12.4034 3.71005 12.0055 4.26515 11.4047 4.48393C11.1725 4.56935 10.9442 4.66144 10.7196 4.76038C10.1344 5.01963 9.4447 4.90049 8.98866 4.46075L8.37786 3.87562C7.77323 3.29208 6.79475 3.29208 6.1902 3.87562L4.00563 5.99419C3.40263 6.57932 3.40263 7.52623 4.00563 8.11127L4.61099 8.69938C5.0654 9.14061 5.18923 9.80809 4.92061 10.3745C4.81765 10.5918 4.72239 10.8128 4.63494 11.0375C4.40887 11.6196 3.83372 12.0047 3.19117 12.0039H2.33978C1.48441 12.0039 0.791504 12.6744 0.791504 13.5022V16.4989C0.791504 17.3267 1.48441 17.9972 2.33978 17.9972ZM13.9516 9.19469C14.4579 9.07108 14.9781 9.00814 15.4999 9.00743C15.7562 9.00893 16.0124 9.02613 16.2671 9.05835C16.3407 9.06661 16.4126 9.07934 16.4847 9.09057C16.6728 9.11902 16.8571 9.1565 17.039 9.20145C17.1055 9.21796 17.1728 9.23218 17.2387 9.25088C17.474 9.31602 17.7047 9.39468 17.93 9.48686C17.9571 9.4981 17.9819 9.51232 18.0074 9.52356C18.2039 9.60819 18.396 9.70335 18.5825 9.80747C18.6452 9.84267 18.7063 9.88236 18.7683 9.91607C18.9232 10.0112 19.0779 10.1131 19.2251 10.2203C19.2739 10.2563 19.3249 10.29 19.3729 10.3274C19.5595 10.4727 19.7383 10.6278 19.9071 10.7919C19.9388 10.8233 19.9667 10.857 19.9976 10.8892C20.1339 11.0279 20.2631 11.1731 20.3847 11.3245C20.4296 11.3799 20.473 11.4369 20.5163 11.4945C20.627 11.6444 20.7315 11.7942 20.826 11.9561C20.8538 12.0018 20.8848 12.046 20.9119 12.0924C21.0295 12.297 21.134 12.509 21.2262 12.7255C21.2471 12.7757 21.2641 12.8274 21.2843 12.8753C21.3524 13.0498 21.4128 13.2274 21.4639 13.4087C21.484 13.4791 21.5026 13.5496 21.5204 13.6208C21.5677 13.8163 21.6048 14.0141 21.6319 14.2133C21.6381 14.2575 21.6474 14.3003 21.6528 14.3444C21.6783 14.5624 21.6922 14.7812 21.693 15.0006C21.693 15.0306 21.693 15.0598 21.6884 15.0898C21.6884 15.1534 21.6814 15.2186 21.6783 15.2831C21.6691 15.4756 21.6512 15.6659 21.6234 15.8539C21.6109 15.9423 21.5978 16.0299 21.5815 16.1183C21.5552 16.2524 21.5211 16.3827 21.4863 16.5139C21.2951 17.2706 20.9815 17.9934 20.5573 18.6557C20.4784 18.7793 20.3824 18.8932 20.2732 18.9928C19.8792 19.348 19.4511 19.6671 18.9951 19.945L18.8945 20.0087C18.7823 20.0761 18.67 20.1473 18.5569 20.2072C18.0886 20.4641 17.5877 20.6596 17.0667 20.7907L16.9738 20.814C16.7516 20.8664 16.5271 20.9076 16.3003 20.9361C16.2655 20.9406 16.2307 20.9473 16.1958 20.9511C15.9651 20.9781 15.7322 20.9923 15.4999 20.9938H15.4713C15.2955 20.9938 15.1244 20.9766 14.9526 20.9616C14.8683 20.9541 14.7808 20.9548 14.6972 20.9443C14.4463 20.9121 14.197 20.8657 13.9516 20.8065C10.6384 19.9772 8.64657 16.7057 9.50349 13.4993C10.0678 11.3882 11.771 9.74084 13.9516 9.19469Z" fill="#505050"/>
<path d="M20.9204 12.0879C21.0382 12.2927 21.1428 12.5049 21.2351 12.7217C21.1428 12.5048 21.0382 12.2927 20.9204 12.0879Z" fill="#78B9EB"/>
<path d="M21.293 12.874C21.3612 13.0488 21.4217 13.2266 21.4728 13.4081C21.4217 13.2266 21.3612 13.0488 21.293 12.874Z" fill="#78B9EB"/>
<path d="M21.6996 14.9977C21.6988 14.7795 21.6864 14.5613 21.6616 14.3438C21.6888 14.5905 21.6996 14.8388 21.695 15.087C21.6996 15.057 21.6996 15.0278 21.6996 14.9977Z" fill="#78B9EB"/>
<path d="M21.5298 13.6211C21.5771 13.8168 21.6143 14.0148 21.6414 14.2144C21.6143 14.0148 21.5771 13.8168 21.5298 13.6211Z" fill="#78B9EB"/>
<path d="M16.4858 9.08203C16.6742 9.11051 16.8587 9.14804 17.0408 9.19303C16.8587 9.14874 16.6742 9.11051 16.4858 9.08203Z" fill="#78B9EB"/>
<path d="M15.4995 8.99902C15.7561 9.00052 16.0126 9.01774 16.2676 9.05C16.0126 9.01774 15.756 9.00052 15.4995 8.99902Z" fill="#78B9EB"/>
<path d="M18.0112 9.51562C18.208 9.60035 18.4003 9.69483 18.587 9.79987C18.4002 9.69563 18.208 9.60035 18.0112 9.51562Z" fill="#78B9EB"/>
<path d="M17.2412 9.24316C17.4768 9.30838 17.7078 9.38713 17.9333 9.47942C17.7078 9.38713 17.4768 9.30838 17.2412 9.24316Z" fill="#78B9EB"/>
<path d="M20.522 11.4893C20.6328 11.6393 20.7374 11.7892 20.8319 11.9513C20.7374 11.7923 20.6328 11.6378 20.522 11.4893Z" fill="#78B9EB"/>
<path d="M20.0039 10.8828C20.1395 11.0216 20.2689 11.167 20.3914 11.3186C20.2697 11.1671 20.1403 11.0216 20.0039 10.8828Z" fill="#78B9EB"/>
<path d="M18.7729 9.90918C18.928 10.0045 19.0829 10.1064 19.2302 10.2137C19.0822 10.1064 18.9303 10.0044 18.7729 9.90918Z" fill="#78B9EB"/>
<path d="M19.3755 10.3203C19.563 10.4651 19.7413 10.6203 19.9102 10.7853C19.7413 10.6211 19.5623 10.4659 19.3755 10.3203Z" fill="#78B9EB"/>
<path d="M18.5603 20.2139C18.0891 20.4666 17.5884 20.6624 17.0684 20.7981C17.5899 20.6669 18.0914 20.4711 18.5603 20.2139Z" fill="#78B9EB"/>
<path d="M16.9726 20.8213C16.7502 20.8738 16.5254 20.9151 16.2983 20.9435C16.5254 20.915 16.7502 20.8738 16.9726 20.8213Z" fill="#78B9EB"/>
<path d="M15.5005 20.9995C15.7339 20.9987 15.9664 20.9853 16.198 20.959C15.957 20.986 15.7152 20.9987 15.4727 20.998L15.5005 20.9995Z" fill="#78B9EB"/>
<path d="M14.952 20.9655C14.8676 20.958 14.78 20.9587 14.6963 20.9482C14.7799 20.9587 14.8675 20.958 14.952 20.9655Z" fill="#78B9EB"/>
<path d="M21.6859 15.2812C21.6774 15.4702 21.658 15.6608 21.6309 15.8527C21.6588 15.6645 21.6766 15.474 21.6859 15.2812Z" fill="#78B9EB"/>
<path d="M18.9992 19.9492C18.9658 19.9702 18.9325 19.9927 18.8984 20.0129L18.9992 19.9492Z" fill="#78B9EB"/>
<path d="M21.5885 16.1182C21.5637 16.2494 21.5265 16.3822 21.4932 16.5142C21.528 16.3829 21.5621 16.2525 21.5885 16.1182Z" fill="#78B9EB"/>
<path d="M22.4598 14.699C22.4521 14.519 22.4389 14.3398 22.4164 14.1613C22.3916 13.9692 22.3622 13.7788 22.321 13.592C22.2939 13.4697 22.2583 13.349 22.2241 13.2275C22.1807 13.073 22.1319 12.9208 22.0776 12.7707C22.0397 12.6665 22.0002 12.563 21.9598 12.4602C21.8598 12.2202 21.746 11.9854 21.6181 11.7582C21.608 11.741 21.6018 11.7222 21.5917 11.705C21.3902 11.3577 21.157 11.0285 20.8942 10.7217C20.8718 10.6948 20.8462 10.6693 20.8229 10.643C20.716 10.5207 20.606 10.4023 20.4905 10.289C20.43 10.2282 20.3665 10.1712 20.3029 10.1127C20.2254 10.043 20.1479 9.97397 20.0704 9.90796C19.9766 9.82921 19.8805 9.75275 19.7829 9.67848L19.6558 9.58698C18.4569 8.71774 16.9983 8.24823 15.5002 8.24902C15.4228 8.24902 15.3452 8.26028 15.2677 8.26326C15.1026 8.26775 14.9368 8.2768 14.7702 8.29323C14.6827 8.3022 14.5943 8.31195 14.5067 8.32399C14.2541 8.35625 14.0038 8.40125 13.7557 8.45979C10.0241 9.39275 7.78046 13.0768 8.74452 16.6888C9.38 19.0685 11.3012 20.9263 13.7611 21.5391C13.7735 21.5391 13.7867 21.5428 13.7999 21.5458C14.0673 21.6103 14.3385 21.6606 14.6121 21.6959C14.7926 21.7176 14.9733 21.7221 15.1546 21.7304C15.2754 21.7364 15.3871 21.7537 15.5134 21.7537C15.7343 21.7537 15.9637 21.7395 16.1977 21.717C16.2225 21.717 16.2473 21.7102 16.2752 21.7072C16.4636 21.687 16.6542 21.6599 16.8487 21.6225C16.9262 21.6082 16.9983 21.5895 17.0727 21.573C17.2091 21.5422 17.3447 21.51 17.4842 21.4702C17.5927 21.4388 17.6981 21.402 17.8042 21.366C17.9104 21.33 18.0205 21.291 18.1306 21.2505C18.2406 21.21 18.3328 21.1635 18.4328 21.1185C18.5631 21.0608 18.6925 21.0037 18.8204 20.9362H18.825C19.5481 20.5612 20.2161 20.0948 20.8113 19.548C20.9717 19.4025 21.112 19.2375 21.2267 19.056C21.8321 18.1177 22.2289 17.0677 22.3939 15.9735C22.4156 15.8287 22.4349 15.684 22.4465 15.5362C22.4574 15.4004 22.4652 15.2654 22.4683 15.1304C22.4683 15.0877 22.4744 15.0472 22.4744 15.0044C22.4753 14.8985 22.4644 14.801 22.4598 14.699ZM14.1386 9.91394C14.5835 9.80522 15.0415 9.74967 15.5003 9.74897C15.722 9.75046 15.9429 9.7647 16.1629 9.79247C16.2219 9.79924 16.28 9.8097 16.3381 9.81796C16.5055 9.84345 16.6714 9.8757 16.8349 9.91622C16.8884 9.92976 16.9419 9.94171 16.9946 9.95595C17.4069 10.0707 17.8037 10.2327 18.1764 10.4374C18.2361 10.4712 18.2942 10.5064 18.3532 10.5417C18.4756 10.6166 18.5942 10.6917 18.7112 10.7771C18.7739 10.8213 18.8375 10.8648 18.898 10.9121C19.0499 11.0299 19.1956 11.1551 19.3343 11.2871C19.3893 11.3411 19.4397 11.4004 19.4932 11.4567C19.5822 11.5505 19.6691 11.6464 19.752 11.7477C19.8093 11.8175 19.8643 11.8895 19.9186 11.9622C19.9961 12.0702 20.0737 12.1827 20.1434 12.2967C20.1822 12.359 20.2209 12.4197 20.2605 12.4835C20.3605 12.6612 20.4496 12.845 20.5271 13.0333C20.558 13.1082 20.5844 13.1833 20.6123 13.2583C20.6627 13.3963 20.7062 13.5357 20.7441 13.6768C20.7635 13.7518 20.7852 13.8186 20.8014 13.8913C20.8464 14.0938 20.8797 14.2993 20.8999 14.5056C20.9045 14.5604 20.9045 14.6158 20.9084 14.6706C20.9192 14.8431 20.9224 15.0163 20.9154 15.1904C20.9154 15.2526 20.91 15.3149 20.9061 15.3763C20.8922 15.5578 20.8682 15.7393 20.8364 15.9216C20.5466 17.4809 19.546 18.8309 18.113 19.5966C18.017 19.6454 17.9224 19.6911 17.8279 19.7331L17.7636 19.7631C17.3133 19.9611 16.8382 20.0998 16.3499 20.177C16.3159 20.1823 16.281 20.1883 16.2461 20.1928C16.1492 20.2063 16.054 20.2175 15.9594 20.2257C15.8346 20.2362 15.7091 20.2422 15.5812 20.2444C15.527 20.2444 15.4735 20.2444 15.4193 20.2444C15.2357 20.2421 15.0527 20.2317 14.8706 20.2115L14.7776 20.201C14.5644 20.174 14.3529 20.1358 14.1444 20.0855C11.242 19.3663 9.49125 16.5065 10.2337 13.6978C10.7243 11.8416 12.2216 10.3918 14.1389 9.91482L14.1386 9.91394Z" fill="#373737"/>
</svg>
